<svg width="134" height="263" viewBox="0 0 134 263" fill="none" xmlns="http://www.w3.org/2000/svg">
<circle cx="88" cy="232" r="4" stroke="#3798E2" stroke-width="4"/>
<path d="M88 238V260.5M88 260.5C80.6001 260.13 76.8384 258.3 71 251.5M88 260.5C95.3999 260.13 99.1616 258.3 105 251.5M81 243H95" stroke="#3798E2" stroke-width="5" stroke-linecap="round" stroke-linejoin="round"/>
<path d="M106.5 250L98.5 251.5L105 258L106.5 250Z" stroke="#3798E2" stroke-width="3" stroke-linecap="round" stroke-linejoin="round"/>
<path d="M77.5 251.5L71 258L69.5 250L77.5 251.5Z" stroke="#3798E2" stroke-width="3" stroke-linecap="round" stroke-linejoin="round"/>
<path d="M88 76L88 219" stroke="#3798E2" stroke-width="5" stroke-linecap="round" stroke-dasharray="7 9"/>
<path d="M24.0781 78.6502C24.0781 13.5645 112.135 13.5645 112.135 78.6502" stroke="#FEDD14" stroke-width="4"/>
<path d="M123.627 80.2344H12.2866C11.8442 80.2344 11.4856 80.5459 11.4856 80.9303C11.4856 81.3146 11.8442 81.6261 12.2866 81.6261H123.627C124.07 81.6261 124.428 81.3146 124.428 80.9303C124.428 80.5459 124.07 80.2344 123.627 80.2344Z" fill="#3798E2"/>
<path d="M40.7898 80.2344H42.1504L40.9738 76.6096C40.7003 75.7667 41.2006 74.8479 42.0461 74.7022L94.553 65.6701C95.7481 65.4645 96.5532 66.8674 95.9097 67.9034L88.2513 80.2344H89.7987L96.9742 68.6808C98.2683 66.5974 96.6123 63.9067 94.3519 64.2956L41.8451 73.3277C40.2262 73.6065 39.2176 75.3904 39.7631 77.0715L40.7898 80.2344Z" fill="#3798E2"/>
<path d="M42.1504 80.2344H88.2513L95.9097 67.9034C96.5532 66.8674 95.7481 65.4645 94.553 65.6701L42.0461 74.7022C41.2006 74.8479 40.7003 75.7667 40.9738 76.6096L42.1504 80.2344Z" fill="#3798E2"/>
<path d="M58.4604 59.607C57.4505 59.607 56.8091 60.7188 57.2213 61.6679L57.6812 62.8691C57.9173 63.4126 58.7388 63.5983 59.3077 63.5565L67.2335 62.8691L75.7756 62.2608C76.365 62.2608 76.8775 61.8102 76.365 60.8925L76.0439 60.3176C75.7996 59.8798 75.3549 59.607 74.8703 59.607H58.4604Z" fill="#3798E2"/>
<path d="M22.9821 80.2344H24.2684M113.174 80.2344H111.888M42.1504 80.2344H40.7898L39.7631 77.0715C39.2176 75.3904 40.2262 73.6065 41.8451 73.3277L94.3519 64.2956C96.6123 63.9067 98.2683 66.5974 96.9742 68.6808L89.7987 80.2344H88.2513M42.1504 80.2344L40.9738 76.6096C40.7003 75.7667 41.2006 74.8479 42.0461 74.7022L94.553 65.6701M42.1504 80.2344H88.2513M94.553 65.6701C95.7481 65.4645 96.5532 66.8674 95.9097 67.9034L88.2513 80.2344M94.553 65.6701L94.4525 64.983M12.2866 80.2344H123.627C124.07 80.2344 124.428 80.5459 124.428 80.9303C124.428 81.3146 124.07 81.6261 123.627 81.6261H12.2866C11.8442 81.6261 11.4856 81.3146 11.4856 80.9303C11.4856 80.5459 11.8442 80.2344 12.2866 80.2344ZM58.4604 59.607C57.4505 59.607 56.8091 60.7188 57.2213 61.6679L57.6812 62.8691C57.9173 63.4126 58.7388 63.5983 59.3077 63.5565L67.2335 62.8691L75.7756 62.2608C76.365 62.2608 76.8775 61.8102 76.365 60.8925L76.0439 60.3176C75.7996 59.8798 75.3549 59.607 74.8703 59.607H58.4604Z" stroke="#3798E2" stroke-width="4"/>
</svg>
