<svg xmlns="http://www.w3.org/2000/svg" viewBox="0 0 258.73 148.41"><defs><style>.cls-1{fill:#fff;}.cls-2{fill:#339ff2;}.cls-3{fill:#ffdd15;}</style></defs><g id="Layer_2" data-name="Layer 2"><g id="Layer_2-2" data-name="Layer 2"><path class="cls-1" d="M11.7,99a12.56,12.56,0,0,1,4.42.77A9.67,9.67,0,0,1,19.7,102a10.86,10.86,0,0,1,2.4,3.85A15.47,15.47,0,0,1,23,111.3a15.22,15.22,0,0,1-.89,5.43,10.68,10.68,0,0,1-2.52,3.9A10.44,10.44,0,0,1,15.63,123a15.83,15.83,0,0,1-5.11.79,16.17,16.17,0,0,1-5-.69A14.19,14.19,0,0,1,2,121.47,5,5,0,0,1,.49,120,3.67,3.67,0,0,1,0,118V91a6.08,6.08,0,0,1,1.16-.27,11.05,11.05,0,0,1,1.7-.12,4.19,4.19,0,0,1,2.57.64,2.69,2.69,0,0,1,.84,2.27v6.77a11.55,11.55,0,0,1,2.4-.92A11.75,11.75,0,0,1,11.7,99Zm-1.08,4.94a6.67,6.67,0,0,0-2.45.44,11.81,11.81,0,0,0-1.95,1v12.35a9.38,9.38,0,0,0,1.73.76,7.69,7.69,0,0,0,2.52.37A5.72,5.72,0,0,0,14.91,117q1.68-1.86,1.68-5.65t-1.65-5.63A5.63,5.63,0,0,0,10.62,103.89Z"/><path class="cls-1" d="M51.1,111.34a14.7,14.7,0,0,1-.86,5.16,11.19,11.19,0,0,1-2.45,3.93,10.38,10.38,0,0,1-3.8,2.49,13.55,13.55,0,0,1-5,.87,13.57,13.57,0,0,1-5-.87,10.6,10.6,0,0,1-3.8-2.47,10.89,10.89,0,0,1-2.45-3.9,16,16,0,0,1,0-10.36,10.6,10.6,0,0,1,6.3-6.37,14.43,14.43,0,0,1,9.87,0,10.67,10.67,0,0,1,3.83,2.49,11.14,11.14,0,0,1,2.47,3.92A14.61,14.61,0,0,1,51.1,111.34ZM39,103.89a5,5,0,0,0-4.2,2,8.72,8.72,0,0,0-1.53,5.5,8.82,8.82,0,0,0,1.5,5.53A5.06,5.06,0,0,0,39,118.8a5,5,0,0,0,4.22-2,8.87,8.87,0,0,0,1.5-5.51,8.72,8.72,0,0,0-1.53-5.5A5,5,0,0,0,39,103.89Z"/><path class="cls-1" d="M65.32,99A12.94,12.94,0,0,1,73.05,101q2.9,2.07,2.89,6.41v11.41a2.82,2.82,0,0,1-.59,1.88A6.25,6.25,0,0,1,73.87,122a11.92,11.92,0,0,1-3.51,1.33,21.43,21.43,0,0,1-4.84.5,13.92,13.92,0,0,1-7.78-1.9,6.42,6.42,0,0,1-2.84-5.71,6.23,6.23,0,0,1,2.1-5.06A11.13,11.13,0,0,1,63.1,109l6.77-.69v-.89a3.07,3.07,0,0,0-1.36-2.76,7,7,0,0,0-3.83-.89,15.17,15.17,0,0,0-3.75.47,17.23,17.23,0,0,0-3.26,1.16,3.16,3.16,0,0,1-.91-1.06,2.94,2.94,0,0,1-.37-1.46,2.52,2.52,0,0,1,.47-1.6,4,4,0,0,1,1.5-1.11,14.58,14.58,0,0,1,3.26-.89A22.8,22.8,0,0,1,65.32,99Zm.2,20.1a11.78,11.78,0,0,0,2.62-.27,5,5,0,0,0,1.73-.67v-5.48l-4.79.44a7,7,0,0,0-3,.87,2.3,2.3,0,0,0-1,2.1,2.61,2.61,0,0,0,1.06,2.22A5.88,5.88,0,0,0,65.52,119.05Z"/><path class="cls-1" d="M89.29,118.06a4.59,4.59,0,0,0,2.7.69,7.23,7.23,0,0,0,1.7-.2,8.82,8.82,0,0,0,1.55-.49,3.23,3.23,0,0,1,.67,1,3,3,0,0,1,.27,1.31,2.92,2.92,0,0,1-1.33,2.45,7.49,7.49,0,0,1-4.3,1A9.77,9.77,0,0,1,84.41,122q-2.25-1.76-2.25-5.81V93.52c.26-.07.65-.15,1.16-.25A8.58,8.58,0,0,1,85,93.12a4.1,4.1,0,0,1,2.55.65A2.74,2.74,0,0,1,88.33,96v4.1h7.26a4.6,4.6,0,0,1,.44,1,4.45,4.45,0,0,1,.2,1.39,2.57,2.57,0,0,1-.59,1.87,2.12,2.12,0,0,1-1.58.59H88.33v10.77A2.61,2.61,0,0,0,89.29,118.06Z"/><path class="cls-1" d="M105.71,114.16a5.83,5.83,0,0,0,2.57,3.65,8.79,8.79,0,0,0,4.64,1.14,11.52,11.52,0,0,0,3.83-.62,14.12,14.12,0,0,0,2.84-1.31,3.27,3.27,0,0,1,1.13,1.09,2.65,2.65,0,0,1,.45,1.48,2.61,2.61,0,0,1-.67,1.75,5.32,5.32,0,0,1-1.83,1.31,11.51,11.51,0,0,1-2.74.84,18.23,18.23,0,0,1-3.4.3,17,17,0,0,1-5.31-.79,10.9,10.9,0,0,1-4.1-2.4,11.16,11.16,0,0,1-2.67-4,14.65,14.65,0,0,1-1-5.53,13.79,13.79,0,0,1,.94-5.33A10.84,10.84,0,0,1,103,102a10.27,10.27,0,0,1,3.73-2.27,13.6,13.6,0,0,1,4.49-.74,12.49,12.49,0,0,1,4.45.77,10.19,10.19,0,0,1,3.45,2.12,9.61,9.61,0,0,1,2.25,3.26,10.41,10.41,0,0,1,.81,4.12,2.78,2.78,0,0,1-.71,2.08,3.6,3.6,0,0,1-2,.88Zm5.48-10.52a5.56,5.56,0,0,0-4,1.61,6.8,6.8,0,0,0-1.82,4.56l11-1.63a5.53,5.53,0,0,0-1.43-3.18A4.72,4.72,0,0,0,111.19,103.64Z"/><path class="cls-1" d="M133.26,123l-1.18.24a8.6,8.6,0,0,1-1.68.15,4.21,4.21,0,0,1-2.57-.64,2.69,2.69,0,0,1-.84-2.27V104.83a3.83,3.83,0,0,1,.6-2.18,5.52,5.52,0,0,1,1.72-1.58,14.44,14.44,0,0,1,3.78-1.53A19.26,19.26,0,0,1,138,99q4.7,0,4.7,2.91a3.76,3.76,0,0,1-.23,1.31,5.46,5.46,0,0,1-.47,1,14.71,14.71,0,0,0-6.07.14,12.17,12.17,0,0,0-2.62,1Z"/><path class="cls-1" d="M164.81,116.43a6.42,6.42,0,0,1-2.56,5.41q-2.58,1.95-7.51,2a20.76,20.76,0,0,1-3.68-.3,11.63,11.63,0,0,1-2.86-.86,5.24,5.24,0,0,1-1.88-1.39,2.78,2.78,0,0,1-.66-1.8,3.09,3.09,0,0,1,.42-1.63,3.42,3.42,0,0,1,1.11-1.13,17.46,17.46,0,0,0,3.18,1.58,11.61,11.61,0,0,0,4.17.69,5.71,5.71,0,0,0,3.07-.67,2.08,2.08,0,0,0,1-1.85c0-1.35-1-2.24-3-2.67l-2.77-.64a11.43,11.43,0,0,1-5.4-2.52,5.9,5.9,0,0,1-1.75-4.49,6.29,6.29,0,0,1,2.56-5.21c1.71-1.33,4.12-2,7.21-2a18.52,18.52,0,0,1,3.28.27,10.81,10.81,0,0,1,2.62.79,5.1,5.1,0,0,1,1.73,1.24,2.47,2.47,0,0,1,.62,1.65,3,3,0,0,1-.4,1.56,3.35,3.35,0,0,1-.94,1.06,5.9,5.9,0,0,0-1.16-.59,14.45,14.45,0,0,0-1.58-.55c-.57-.16-1.18-.3-1.82-.42a11.37,11.37,0,0,0-1.9-.17,6.18,6.18,0,0,0-3,.62,1.92,1.92,0,0,0-1.08,1.75,1.73,1.73,0,0,0,.62,1.38,4.86,4.86,0,0,0,2.14.89l2.42.59a12.28,12.28,0,0,1,5.93,2.75A6.34,6.34,0,0,1,164.81,116.43Z"/><path class="cls-1" d="M185.08,123.24a8.58,8.58,0,0,1-1.65.15,4.16,4.16,0,0,1-2.59-.64,2.71,2.71,0,0,1-.82-2.27V91a6.08,6.08,0,0,1,1.16-.27,10.7,10.7,0,0,1,1.66-.12,4.2,4.2,0,0,1,2.59.64,2.74,2.74,0,0,1,.81,2.27V123C186,123.06,185.59,123.15,185.08,123.24Z"/><path class="cls-1" d="M192.61,92.68a3.34,3.34,0,0,1,1-2.44,3.51,3.51,0,0,1,2.6-1,3.4,3.4,0,0,1,2.56,1,3.36,3.36,0,0,1,1,2.44,3.44,3.44,0,0,1-3.55,3.51,3.51,3.51,0,0,1-2.6-1A3.39,3.39,0,0,1,192.61,92.68Zm.49,7.16c.27-.07.65-.15,1.17-.25a8.53,8.53,0,0,1,1.65-.14,4.18,4.18,0,0,1,2.59.64,2.75,2.75,0,0,1,.82,2.27V123c-.27.06-.65.15-1.16.24a8.76,8.76,0,0,1-1.66.15,4.18,4.18,0,0,1-2.59-.64,2.75,2.75,0,0,1-.82-2.27Z"/><path class="cls-1" d="M224,116.43a6.42,6.42,0,0,1-2.56,5.41q-2.58,1.95-7.51,2a20.76,20.76,0,0,1-3.68-.3,11.63,11.63,0,0,1-2.86-.86,5.24,5.24,0,0,1-1.88-1.39,2.78,2.78,0,0,1-.66-1.8,3.09,3.09,0,0,1,.42-1.63,3.42,3.42,0,0,1,1.11-1.13,17.46,17.46,0,0,0,3.18,1.58,11.61,11.61,0,0,0,4.17.69,5.71,5.71,0,0,0,3.07-.67,2.08,2.08,0,0,0,1-1.85c0-1.35-1-2.24-3-2.67l-2.77-.64a11.43,11.43,0,0,1-5.4-2.52,5.9,5.9,0,0,1-1.75-4.49,6.29,6.29,0,0,1,2.56-5.21c1.71-1.33,4.12-2,7.21-2a18.52,18.52,0,0,1,3.28.27,10.81,10.81,0,0,1,2.62.79,5.1,5.1,0,0,1,1.73,1.24,2.47,2.47,0,0,1,.62,1.65,3,3,0,0,1-.4,1.56,3.35,3.35,0,0,1-.94,1.06,5.9,5.9,0,0,0-1.16-.59,14.45,14.45,0,0,0-1.58-.55c-.57-.16-1.18-.3-1.82-.42a11.37,11.37,0,0,0-1.9-.17,6.18,6.18,0,0,0-3,.62,1.92,1.92,0,0,0-1.08,1.75,1.75,1.75,0,0,0,.61,1.38,5,5,0,0,0,2.15.89l2.42.59a12.28,12.28,0,0,1,5.93,2.75A6.34,6.34,0,0,1,224,116.43Z"/><path class="cls-1" d="M236.23,118.06a4.58,4.58,0,0,0,2.69.69,7.25,7.25,0,0,0,1.71-.2,8.82,8.82,0,0,0,1.55-.49,3.23,3.23,0,0,1,.67,1,3,3,0,0,1,.27,1.31,2.92,2.92,0,0,1-1.33,2.45,7.49,7.49,0,0,1-4.3,1,9.77,9.77,0,0,1-6.14-1.75q-2.25-1.76-2.25-5.81V93.52c.26-.07.65-.15,1.16-.25a8.58,8.58,0,0,1,1.65-.15,4.12,4.12,0,0,1,2.55.65,2.74,2.74,0,0,1,.81,2.27v4.1h7.26a4.6,4.6,0,0,1,.44,1,4.76,4.76,0,0,1,.2,1.39,2.57,2.57,0,0,1-.59,1.87A2.12,2.12,0,0,1,241,105h-5.73v10.77A2.61,2.61,0,0,0,236.23,118.06Z"/><path class="cls-2" d="M15.06,140.17a2.08,2.08,0,0,1-.45,1.36,2.93,2.93,0,0,1-1.24.88,2.56,2.56,0,0,1,2.06,2.53,2.88,2.88,0,0,1-1.3,2.6,6.94,6.94,0,0,1-3.75.84l-.71,0c-.27,0-.55,0-.84-.07s-.57-.08-.86-.14a3.72,3.72,0,0,1-.78-.22,1.31,1.31,0,0,1-1-1.29v-8.27a.82.82,0,0,1,.2-.58,1.66,1.66,0,0,1,.56-.33,7.11,7.11,0,0,1,1.51-.31q.9-.09,1.86-.09a6.56,6.56,0,0,1,3.48.76A2.57,2.57,0,0,1,15.06,140.17Zm-5.83,1.39h1.29a1.74,1.74,0,0,0,1.11-.29,1,1,0,0,0,.34-.83.89.89,0,0,0-.39-.76,2.09,2.09,0,0,0-1.2-.28H9.77a3.13,3.13,0,0,0-.54.06Zm3,3.24c0-.72-.49-1.08-1.45-1.08H9.23v2.16a3.07,3.07,0,0,0,.64.1l.74,0a2.15,2.15,0,0,0,1.18-.29A1,1,0,0,0,12.26,144.8Z"/><path class="cls-2" d="M19.84,147.7a1.62,1.62,0,0,1-.44-1.2V139a1.52,1.52,0,0,1,1.65-1.65h5.84a2,2,0,0,1,.22.49,2.07,2.07,0,0,1,.1.68,1.4,1.4,0,0,1-.28.95,1,1,0,0,1-.78.3H22.41v1.65h4a2.13,2.13,0,0,1,.23.5,2.31,2.31,0,0,1,.09.67,1.33,1.33,0,0,1-.28,1,1.06,1.06,0,0,1-.78.29H22.41v1.86H27a2,2,0,0,1,.22.52,2.17,2.17,0,0,1,.1.69,1.31,1.31,0,0,1-.28.94,1,1,0,0,1-.78.3H21.05A1.63,1.63,0,0,1,19.84,147.7Z"/><path class="cls-2" d="M39.57,137.87a2.5,2.5,0,0,1,.09.69,1.35,1.35,0,0,1-.29,1,1,1,0,0,1-.79.3h-2v8.24a5.21,5.21,0,0,1-.6.1,5.69,5.69,0,0,1-.83,0,2.06,2.06,0,0,1-1.31-.31,1.52,1.52,0,0,1-.36-1.16v-6.92H30.81a2,2,0,0,1-.23-.52,2.5,2.5,0,0,1-.09-.69,1.33,1.33,0,0,1,.29-1,1,1,0,0,1,.79-.3h7.77A2,2,0,0,1,39.57,137.87Z"/><path class="cls-2" d="M51.81,137.87a2.5,2.5,0,0,1,.09.69,1.35,1.35,0,0,1-.29,1,1,1,0,0,1-.79.3h-2v8.24a5.21,5.21,0,0,1-.6.1,5.69,5.69,0,0,1-.83,0,2.06,2.06,0,0,1-1.31-.31,1.52,1.52,0,0,1-.36-1.16v-6.92H43.05a2,2,0,0,1-.23-.52,2.5,2.5,0,0,1-.09-.69,1.33,1.33,0,0,1,.29-1,1,1,0,0,1,.79-.3h7.77A2,2,0,0,1,51.81,137.87Z"/><path class="cls-2" d="M56.07,147.7a1.59,1.59,0,0,1-.45-1.2V139a1.54,1.54,0,0,1,1.65-1.65h5.85a2.53,2.53,0,0,1,.22.49,2.37,2.37,0,0,1,.1.68,1.35,1.35,0,0,1-.29.95,1,1,0,0,1-.78.3H58.64v1.65h4a2.14,2.14,0,0,1,.22.5,2,2,0,0,1,.1.67,1.33,1.33,0,0,1-.28,1,1.06,1.06,0,0,1-.78.29H58.64v1.86h4.55a2.38,2.38,0,0,1,.22.52,2.5,2.5,0,0,1,.1.69,1.31,1.31,0,0,1-.29.94,1,1,0,0,1-.78.3H57.27A1.59,1.59,0,0,1,56.07,147.7Z"/><path class="cls-2" d="M76.33,140.87a3.13,3.13,0,0,1-.52,1.79A4.26,4.26,0,0,1,74.42,144c.22.3.45.6.68.88s.45.56.65.82l.54.72.4.6a1.69,1.69,0,0,1-.65.95,1.77,1.77,0,0,1-1.05.33,2.29,2.29,0,0,1-.68-.09,1.51,1.51,0,0,1-.49-.25,1.8,1.8,0,0,1-.39-.39,4.69,4.69,0,0,1-.34-.49l-1.51-2.43h-.93v3.46a5.08,5.08,0,0,1-.61.1,5.69,5.69,0,0,1-.83,0,2,2,0,0,1-1.3-.31,1.52,1.52,0,0,1-.36-1.16v-8.39a.77.77,0,0,1,.2-.58,1.66,1.66,0,0,1,.56-.33,7.1,7.1,0,0,1,1.4-.31,15.18,15.18,0,0,1,1.7-.09,5.61,5.61,0,0,1,3.68,1A3.43,3.43,0,0,1,76.33,140.87Zm-4.83,1.39a2,2,0,0,0,1.22-.34,1.18,1.18,0,0,0,.48-1,1.23,1.23,0,0,0-.44-1,2.19,2.19,0,0,0-1.37-.34H71l-.38.06v2.65Z"/><path class="cls-2" d="M99.45,142.71a6.66,6.66,0,0,1-.42,2.45A4.91,4.91,0,0,1,97.85,147,5,5,0,0,1,96.07,148a6.91,6.91,0,0,1-4.46,0,4.74,4.74,0,0,1-1.77-1.1,5,5,0,0,1-1.17-1.79,7.09,7.09,0,0,1,0-4.89,5,5,0,0,1,1.18-1.78,5,5,0,0,1,1.77-1.09,6.61,6.61,0,0,1,2.21-.37,6.51,6.51,0,0,1,2.2.37,5.19,5.19,0,0,1,1.79,1.09A5.11,5.11,0,0,1,99,140.26,6.45,6.45,0,0,1,99.45,142.71Zm-3.18,0a3.66,3.66,0,0,0-.66-2.39,2.16,2.16,0,0,0-1.77-.8,2.18,2.18,0,0,0-1.75.79,3.66,3.66,0,0,0-.66,2.4,3.73,3.73,0,0,0,.66,2.41,2.36,2.36,0,0,0,3.52,0A3.73,3.73,0,0,0,96.27,142.71Z"/><path class="cls-2" d="M112.45,148.1a4.13,4.13,0,0,1-1.13.13,3.92,3.92,0,0,1-1.24-.19,1.7,1.7,0,0,1-1-.94l-1.76-3.58-.48-1c-.14-.33-.29-.7-.46-1.13l-.12,0c.06.74.09,1.43.1,2.06s0,1.24,0,1.82v2.81a5.9,5.9,0,0,1-.59.09,5.21,5.21,0,0,1-.8,0,1.85,1.85,0,0,1-1.24-.31,1.42,1.42,0,0,1-.35-1.1v-8.91a1.44,1.44,0,0,1,.76-.53,3.3,3.3,0,0,1,1.1-.18,4,4,0,0,1,1.25.2,1.75,1.75,0,0,1,1,.93l1.77,3.58c.18.37.34.71.48,1s.29.7.46,1.12l.07,0c0-.56-.08-1.1-.08-1.6s0-1,0-1.44V137.3l.58-.08a5.29,5.29,0,0,1,.8-.06,1.94,1.94,0,0,1,1.25.31,1.46,1.46,0,0,1,.35,1.11v9.14A1.64,1.64,0,0,1,112.45,148.1Z"/><path class="cls-2" d="M134.15,137.87a2.17,2.17,0,0,1,.1.69,1.4,1.4,0,0,1-.29,1,1.06,1.06,0,0,1-.79.3h-2v8.24a5.21,5.21,0,0,1-.6.1,5.83,5.83,0,0,1-.84,0,2,2,0,0,1-1.3-.31,1.52,1.52,0,0,1-.36-1.16v-6.92h-2.68a2.38,2.38,0,0,1-.22-.52,2.5,2.5,0,0,1-.09-.69,1.33,1.33,0,0,1,.29-1,1,1,0,0,1,.79-.3h7.77A2,2,0,0,1,134.15,137.87Z"/><path class="cls-2" d="M140.47,148.18a5.69,5.69,0,0,1-.83,0,2.06,2.06,0,0,1-1.31-.31,1.52,1.52,0,0,1-.36-1.16v-9.44l.62-.1a5.55,5.55,0,0,1,.82-.06,2.1,2.1,0,0,1,1.27.3,1.43,1.43,0,0,1,.39,1.17v2.87h3.4v-4.18l.62-.1a5.66,5.66,0,0,1,.82-.06,2,2,0,0,1,1.27.32,1.48,1.48,0,0,1,.39,1.19v9.41a5.21,5.21,0,0,1-.6.1,5.69,5.69,0,0,1-.83,0,2,2,0,0,1-1.3-.31,1.48,1.48,0,0,1-.37-1.16V144h-3.4v4.13A5.21,5.21,0,0,1,140.47,148.18Z"/><path class="cls-2" d="M152.53,147.7a1.62,1.62,0,0,1-.44-1.2V139a1.52,1.52,0,0,1,1.65-1.65h5.84a2,2,0,0,1,.23.49,2.38,2.38,0,0,1,.09.68,1.35,1.35,0,0,1-.28.95,1,1,0,0,1-.78.3H155.1v1.65h4a2.65,2.65,0,0,1,.22.5,2.3,2.3,0,0,1,.1.67,1.33,1.33,0,0,1-.29,1,1.06,1.06,0,0,1-.78.29H155.1v1.86h4.55a2,2,0,0,1,.23.52,2.5,2.5,0,0,1,.09.69,1.31,1.31,0,0,1-.28.94,1,1,0,0,1-.78.3h-5.17A1.63,1.63,0,0,1,152.53,147.7Z"/><path class="cls-2" d="M177.2,140a3.59,3.59,0,0,1,.61-.2,3,3,0,0,1,.84-.12,3,3,0,0,1,1.24.22,1,1,0,0,1,.6.65c.13.48.25.93.37,1.35s.22.82.32,1.21.21.76.31,1.14.2.77.3,1.19h.08c.11-.72.2-1.41.29-2.07s.16-1.29.23-1.93l.21-1.87q.1-.93.21-1.89a2.79,2.79,0,0,1,1.4-.37,2.19,2.19,0,0,1,1.14.28,1,1,0,0,1,.47,1,8.91,8.91,0,0,1-.08,1.1c-.05.48-.12,1-.21,1.61s-.19,1.21-.31,1.86-.24,1.27-.37,1.86-.26,1.12-.4,1.6a7.3,7.3,0,0,1-.38,1.11,2.2,2.2,0,0,1-.87.41,5.07,5.07,0,0,1-1.24.15,3.94,3.94,0,0,1-1.41-.22,1,1,0,0,1-.7-.63c-.15-.47-.31-1-.49-1.68s-.37-1.36-.57-2.14c-.16.77-.34,1.52-.51,2.25s-.34,1.35-.48,1.86a2.12,2.12,0,0,1-.8.41,4.25,4.25,0,0,1-1.17.15,4.35,4.35,0,0,1-1.44-.22,1.3,1.3,0,0,1-.84-.63,6,6,0,0,1-.35-.94c-.12-.42-.25-.9-.38-1.44s-.26-1.12-.4-1.74-.26-1.25-.37-1.88-.21-1.24-.31-1.83-.16-1.15-.21-1.64a2.21,2.21,0,0,1,.69-.43,2.32,2.32,0,0,1,1-.19,1.9,1.9,0,0,1,1.1.29,1.34,1.34,0,0,1,.54,1c.19,1.21.35,2.21.47,3s.23,1.47.3,2,.14.91.17,1.19.07.51.11.68H176c.1-.47.2-.91.3-1.31s.19-.81.29-1.22.2-.84.31-1.31S177.08,140.58,177.2,140Z"/><path class="cls-2" d="M195.46,145.86h-3.21c-.11.43-.22.82-.31,1.19s-.17.71-.25,1l-.53.15a3.1,3.1,0,0,1-.66.06,2.39,2.39,0,0,1-1.34-.31,1,1,0,0,1-.43-.86,1.73,1.73,0,0,1,.07-.5c0-.16.1-.36.16-.58s.2-.72.34-1.2.31-1,.49-1.54.37-1.11.57-1.68l.57-1.63q.25-.78.48-1.38c.15-.41.27-.72.35-.93a3.73,3.73,0,0,1,.91-.34,4.72,4.72,0,0,1,1.23-.16,4.45,4.45,0,0,1,1.57.26,1.36,1.36,0,0,1,.88.82q.32.9.69,2.13c.25.81.49,1.65.74,2.52s.49,1.73.73,2.57l.62,2.24a1.44,1.44,0,0,1-.64.4,3,3,0,0,1-1,.15,1.88,1.88,0,0,1-1.2-.28,1.69,1.69,0,0,1-.5-.91Zm-1.58-5.9c-.16.49-.34,1-.54,1.61s-.4,1.23-.59,1.9H195c-.17-.67-.34-1.31-.51-1.9L194,140Z"/><path class="cls-2" d="M210.42,137.87a2.17,2.17,0,0,1,.1.69,1.4,1.4,0,0,1-.29,1,1.06,1.06,0,0,1-.79.3h-2v8.24a5.08,5.08,0,0,1-.61.1,5.69,5.69,0,0,1-.83,0,2,2,0,0,1-1.3-.31,1.52,1.52,0,0,1-.36-1.16v-6.92h-2.68a2,2,0,0,1-.22-.52,2.17,2.17,0,0,1-.1-.69,1.37,1.37,0,0,1,.29-1,1.06,1.06,0,0,1,.79-.3h7.78A2,2,0,0,1,210.42,137.87Z"/><path class="cls-2" d="M214.68,147.7a1.62,1.62,0,0,1-.44-1.2V139a1.52,1.52,0,0,1,1.65-1.65h5.84a2,2,0,0,1,.22.49,2.07,2.07,0,0,1,.1.68,1.35,1.35,0,0,1-.28.95,1,1,0,0,1-.78.3h-3.74v1.65h4a2.65,2.65,0,0,1,.22.5,2.31,2.31,0,0,1,.09.67,1.33,1.33,0,0,1-.28,1,1.06,1.06,0,0,1-.78.29h-3.24v1.86h4.55a1.69,1.69,0,0,1,.22.52,2.17,2.17,0,0,1,.1.69,1.31,1.31,0,0,1-.28.94,1,1,0,0,1-.78.3h-5.17A1.63,1.63,0,0,1,214.68,147.7Z"/><path class="cls-2" d="M235,140.87a3.14,3.14,0,0,1-.53,1.79A4.17,4.17,0,0,1,233,144c.23.3.46.6.69.88s.44.56.64.82l.54.72.4.6a1.64,1.64,0,0,1-.65.95,1.77,1.77,0,0,1-1.05.33,2.22,2.22,0,0,1-.67-.09,1.56,1.56,0,0,1-.5-.25,1.8,1.8,0,0,1-.39-.39,4.69,4.69,0,0,1-.34-.49l-1.5-2.43h-.94v3.46a5.21,5.21,0,0,1-.6.1,5.69,5.69,0,0,1-.83,0,2.06,2.06,0,0,1-1.31-.31,1.52,1.52,0,0,1-.36-1.16v-8.39a.82.82,0,0,1,.2-.58,1.76,1.76,0,0,1,.56-.33,7.1,7.1,0,0,1,1.4-.31,15.18,15.18,0,0,1,1.7-.09,5.66,5.66,0,0,1,3.69,1A3.46,3.46,0,0,1,235,140.87Zm-4.84,1.39a2,2,0,0,0,1.22-.34,1.18,1.18,0,0,0,.48-1,1.22,1.22,0,0,0-.43-1,2.22,2.22,0,0,0-1.38-.34h-.39l-.39.06v2.65Z"/><g id="UgS8Pt"><path class="cls-2" d="M100.05,34l42.86-6.52c1.19-.13,1.85,1.75,1,2.84l-8.76,13.27a1.15,1.15,0,0,1-.9.48h-32.2a.65.65,0,0,1-.55-.5L99,36.38C98.63,35.33,99.17,34.13,100.05,34Z"/></g><g id="UgS8Pt-2" data-name="UgS8Pt"><path class="cls-2" d="M128.4,24.35l1.44,2.13a.89.89,0,0,1-.72,1.37h0c-.32,0-14.11,1.53-14.11,1.53a.91.91,0,0,1-1-.56l-1.31-3.69a.9.9,0,0,1,.83-1.23l14.06,0A.91.91,0,0,1,128.4,24.35Z"/></g><path class="cls-3" d="M152.69,40.21c.1-1.05.16-2.12.16-3.2,0-.78,0-1.57-.09-2.34a31.26,31.26,0,0,0-62.35,0c-.06.77-.09,1.55-.09,2.33,0,1.08.06,2.15.16,3.2l-5.75.2c-.1-1.12-.16-2.25-.16-3.4,0-.78,0-1.56.08-2.33a37,37,0,0,1,73.87,0c0,.78.08,1.56.08,2.34,0,1.15,0,2.29-.16,3.41Z"/><path class="cls-2" d="M150.13,54.24H93A2.88,2.88,0,1,0,93,60h57.09a2.88,2.88,0,1,0,0-5.75Z"/><path class="cls-2" d="M137.08,68.28h-31a2.88,2.88,0,1,0,0,5.75h31a2.88,2.88,0,1,0,0-5.75Z"/><path class="cls-2" d="M164.67,40.21H78.51a2.87,2.87,0,1,0,0,5.74h86.16a2.87,2.87,0,1,0,0-5.74Z"/><path class="cls-1" d="M249.16,89.52a1.36,1.36,0,0,1,.05.36.73.73,0,0,1-.15.5.54.54,0,0,1-.42.17H247v6.08l-.3.06a3,3,0,0,1-.43,0,1,1,0,0,1-.65-.17.71.71,0,0,1-.2-.57V90.55h-2a1.16,1.16,0,0,1-.11-.27,1,1,0,0,1-.06-.35.74.74,0,0,1,.15-.51.57.57,0,0,1,.42-.16H249A1.62,1.62,0,0,1,249.16,89.52Z"/><path class="cls-1" d="M255.46,94.78a1.13,1.13,0,0,1-.31.16,1.56,1.56,0,0,1-.46.06,1.54,1.54,0,0,1-.52-.08.48.48,0,0,1-.3-.29L253,92.52c-.23-.58-.41-1.08-.55-1.5h-.06c0,.55,0,1-.06,1.5s0,.9-.06,1.33,0,.87-.05,1.32-.05.93-.08,1.45l-.31.07a2.38,2.38,0,0,1-.39,0q-.81,0-.81-.6c0-.13,0-.33,0-.6s0-.59,0-1,0-.76.07-1.19.06-.86.08-1.3.06-.87.1-1.29.06-.82.08-1.19a1.15,1.15,0,0,1,.36-.25,1.82,1.82,0,0,1,1.42,0,.93.93,0,0,1,.43.5c.11.25.22.53.34.83s.23.61.36.92l.35.93.34.86h.05c.27-.76.55-1.5.82-2.21s.51-1.32.71-1.82a2.9,2.9,0,0,1,.38-.12,2.42,2.42,0,0,1,.47,0,1.62,1.62,0,0,1,.72.14.6.6,0,0,1,.33.4c0,.15.06.4.11.73s.08.72.12,1.15.08.89.12,1.38.07,1,.11,1.4.06.86.08,1.24,0,.66.05.87a1.4,1.4,0,0,1-.33.15,1.8,1.8,0,0,1-.43,0,1.22,1.22,0,0,1-.56-.12.56.56,0,0,1-.26-.48c0-.51-.06-1-.08-1.5s-.05-1-.07-1.4,0-.84,0-1.21,0-.68,0-1h-.06c-.13.38-.31.87-.54,1.45Z"/></g></g></svg>