<svg xmlns="http://www.w3.org/2000/svg" viewBox="0 0 376.05 74.03"><defs><style>.cls-1{fill:#fff;}.cls-2{fill:#339ff2;}.cls-3{fill:#ffdd15;}</style></defs><g id="Layer_2" data-name="Layer 2"><g id="Layer_2-2" data-name="Layer 2"><path class="cls-1" d="M129,16.15a12.74,12.74,0,0,1,4.42.76A9.82,9.82,0,0,1,137,19.24a10.86,10.86,0,0,1,2.4,3.85,15.45,15.45,0,0,1,.86,5.4,15.15,15.15,0,0,1-.89,5.43,10.64,10.64,0,0,1-2.52,3.91A10.44,10.44,0,0,1,133,40.2a15.83,15.83,0,0,1-5.11.79,16.2,16.2,0,0,1-5-.7,13.76,13.76,0,0,1-3.5-1.63,4.92,4.92,0,0,1-1.54-1.5,3.76,3.76,0,0,1-.49-1.95V8.15a6.08,6.08,0,0,1,1.16-.27,11.09,11.09,0,0,1,1.71-.12,4.18,4.18,0,0,1,2.56.64,2.69,2.69,0,0,1,.84,2.27v6.76a12.15,12.15,0,0,1,2.4-.91A11.33,11.33,0,0,1,129,16.15Zm-1.08,4.94a6.67,6.67,0,0,0-2.45.44,11.81,11.81,0,0,0-1.95,1V34.86a8.71,8.71,0,0,0,1.73.77,7.69,7.69,0,0,0,2.52.37,5.72,5.72,0,0,0,4.44-1.85c1.12-1.24,1.68-3.12,1.68-5.66s-.55-4.44-1.65-5.63A5.66,5.66,0,0,0,127.94,21.09Z"/><path class="cls-1" d="M168.42,28.54a14.47,14.47,0,0,1-.86,5.16,11.41,11.41,0,0,1-2.44,3.93,10.55,10.55,0,0,1-3.81,2.49,14.72,14.72,0,0,1-10,0,10.6,10.6,0,0,1-3.8-2.47,11,11,0,0,1-2.45-3.9,14.82,14.82,0,0,1-.86-5.21,14.7,14.7,0,0,1,.86-5.16,10.88,10.88,0,0,1,2.47-3.9A11,11,0,0,1,151.39,17a14.62,14.62,0,0,1,9.88,0,10.79,10.79,0,0,1,3.82,2.5,11.05,11.05,0,0,1,2.47,3.92A14.34,14.34,0,0,1,168.42,28.54Zm-12.09-7.45a5,5,0,0,0-4.2,1.95,8.72,8.72,0,0,0-1.53,5.5,8.76,8.76,0,0,0,1.51,5.53,5.56,5.56,0,0,0,8.44,0,8.87,8.87,0,0,0,1.51-5.51,8.72,8.72,0,0,0-1.54-5.5A5,5,0,0,0,156.33,21.09Z"/><path class="cls-1" d="M182.64,16.15a13,13,0,0,1,7.73,2.07q2.9,2.09,2.89,6.42V36.05a2.79,2.79,0,0,1-.59,1.87,6.06,6.06,0,0,1-1.48,1.24,12.09,12.09,0,0,1-3.51,1.33,21.37,21.37,0,0,1-4.84.5,13.78,13.78,0,0,1-7.77-1.91,6.37,6.37,0,0,1-2.84-5.7,6.25,6.25,0,0,1,2.09-5.06,11.13,11.13,0,0,1,6.1-2.15l6.77-.69v-.89a3.07,3.07,0,0,0-1.36-2.76,7,7,0,0,0-3.83-.89,15.17,15.17,0,0,0-3.75.47A17.48,17.48,0,0,0,175,22.57a3.16,3.16,0,0,1-.91-1.06,2.94,2.94,0,0,1-.37-1.46,2.52,2.52,0,0,1,.47-1.6,3.92,3.92,0,0,1,1.5-1.12,14.59,14.59,0,0,1,3.26-.88A22.8,22.8,0,0,1,182.64,16.15Zm.2,20.1a11.2,11.2,0,0,0,2.62-.28,5,5,0,0,0,1.73-.66V29.83l-4.79.44a6.77,6.77,0,0,0-3,.87,2.28,2.28,0,0,0-1,2.09,2.61,2.61,0,0,0,1.06,2.23A5.88,5.88,0,0,0,182.84,36.25Z"/><path class="cls-1" d="M206.62,35.26a4.53,4.53,0,0,0,2.69.69,7.73,7.73,0,0,0,1.7-.2,8.94,8.94,0,0,0,1.56-.49,3.4,3.4,0,0,1,.66,1,3,3,0,0,1,.27,1.31A2.89,2.89,0,0,1,212.17,40a7.39,7.39,0,0,1-4.29,1,9.74,9.74,0,0,1-6.15-1.76c-1.5-1.16-2.25-3.1-2.25-5.8V10.72c.26-.07.65-.15,1.16-.25a8.61,8.61,0,0,1,1.66-.15,4.09,4.09,0,0,1,2.54.65,2.73,2.73,0,0,1,.81,2.27v4.09h7.26a4.68,4.68,0,0,1,.45,1,4.75,4.75,0,0,1,.19,1.38,2.54,2.54,0,0,1-.59,1.88,2.1,2.1,0,0,1-1.58.59h-5.73V33A2.59,2.59,0,0,0,206.62,35.26Z"/><path class="cls-1" d="M223,31.36A5.86,5.86,0,0,0,225.6,35a8.79,8.79,0,0,0,4.64,1.14,11.48,11.48,0,0,0,3.83-.62,14.12,14.12,0,0,0,2.84-1.31A3.27,3.27,0,0,1,238,35.31a2.65,2.65,0,0,1,.45,1.48,2.56,2.56,0,0,1-.67,1.75A5.37,5.37,0,0,1,236,39.85a11.74,11.74,0,0,1-2.75.84,18.23,18.23,0,0,1-3.4.3,17.06,17.06,0,0,1-5.31-.79,10.9,10.9,0,0,1-4.1-2.4,11.14,11.14,0,0,1-2.66-4,14.49,14.49,0,0,1-1-5.53,14.07,14.07,0,0,1,.94-5.34,11,11,0,0,1,2.54-3.8A10.21,10.21,0,0,1,224,16.89a13.64,13.64,0,0,1,4.49-.74,12.71,12.71,0,0,1,4.45.76A10.21,10.21,0,0,1,236.41,19a9.51,9.51,0,0,1,2.25,3.26,10.38,10.38,0,0,1,.82,4.12,2.74,2.74,0,0,1-.72,2.07,3.57,3.57,0,0,1-2,.89Zm5.48-10.52a5.52,5.52,0,0,0-4,1.61A6.74,6.74,0,0,0,222.64,27l11-1.63a5.5,5.5,0,0,0-1.43-3.18A4.67,4.67,0,0,0,228.51,20.84Z"/><path class="cls-1" d="M250.58,40.2l-1.18.24a8.46,8.46,0,0,1-1.68.15,4.21,4.21,0,0,1-2.57-.64,2.7,2.7,0,0,1-.84-2.27V22a3.83,3.83,0,0,1,.6-2.18,5.41,5.41,0,0,1,1.72-1.58,14.44,14.44,0,0,1,3.78-1.53,19.29,19.29,0,0,1,4.87-.59c3.12,0,4.69,1,4.69,2.91a3.8,3.8,0,0,1-.23,1.31,4.56,4.56,0,0,1-.47,1,13.8,13.8,0,0,0-2.81-.24,13.18,13.18,0,0,0-3.26.39,11.67,11.67,0,0,0-2.62,1Z"/><path class="cls-1" d="M282.14,33.63A6.43,6.43,0,0,1,279.57,39c-1.71,1.3-4.22,2-7.51,2a20.76,20.76,0,0,1-3.68-.3,12.08,12.08,0,0,1-2.86-.86,5.24,5.24,0,0,1-1.88-1.39,2.78,2.78,0,0,1-.66-1.8A3.09,3.09,0,0,1,263.4,35a3.42,3.42,0,0,1,1.11-1.13,18.12,18.12,0,0,0,3.18,1.58,11.66,11.66,0,0,0,4.18.69,5.76,5.76,0,0,0,3.06-.67,2.08,2.08,0,0,0,1-1.85c0-1.35-1-2.24-3-2.67l-2.76-.64a11.42,11.42,0,0,1-5.41-2.52,5.91,5.91,0,0,1-1.75-4.49,6.29,6.29,0,0,1,2.56-5.21c1.71-1.33,4.12-2,7.21-2a18.72,18.72,0,0,1,3.29.27,10.86,10.86,0,0,1,2.61.79,5.1,5.1,0,0,1,1.73,1.24,2.45,2.45,0,0,1,.62,1.65,3,3,0,0,1-.4,1.56,3.57,3.57,0,0,1-.93,1.06,7,7,0,0,0-1.17-.6c-.47-.19-1-.37-1.58-.54s-1.18-.3-1.82-.42a11.27,11.27,0,0,0-1.9-.17,6,6,0,0,0-3,.62,1.91,1.91,0,0,0-1.09,1.75,1.73,1.73,0,0,0,.62,1.38,5,5,0,0,0,2.14.89l2.42.59a12.33,12.33,0,0,1,5.93,2.74A6.35,6.35,0,0,1,282.14,33.63Z"/><path class="cls-1" d="M302.4,40.44a8.58,8.58,0,0,1-1.65.15,4.16,4.16,0,0,1-2.59-.64,2.73,2.73,0,0,1-.82-2.27V8.15a6.28,6.28,0,0,1,1.16-.27,10.7,10.7,0,0,1,1.66-.12,4.18,4.18,0,0,1,2.59.64,2.74,2.74,0,0,1,.81,2.27V40.2Z"/><path class="cls-1" d="M309.93,9.88a3.36,3.36,0,0,1,1-2.45,3.54,3.54,0,0,1,2.6-1,3.42,3.42,0,0,1,2.56,1,3.38,3.38,0,0,1,1,2.45,3.42,3.42,0,0,1-3.55,3.5,3.5,3.5,0,0,1-2.6-1A3.39,3.39,0,0,1,309.93,9.88Zm.5,7.16c.26-.07.65-.15,1.16-.25a8.58,8.58,0,0,1,1.65-.15,4.15,4.15,0,0,1,2.59.65,2.7,2.7,0,0,1,.82,2.27V40.2l-1.16.24a8.61,8.61,0,0,1-1.66.15,4.18,4.18,0,0,1-2.59-.64,2.76,2.76,0,0,1-.81-2.27Z"/><path class="cls-1" d="M341.33,33.63A6.42,6.42,0,0,1,338.77,39c-1.71,1.3-4.22,2-7.51,2a20.76,20.76,0,0,1-3.68-.3,12.08,12.08,0,0,1-2.86-.86,5.24,5.24,0,0,1-1.88-1.39,2.78,2.78,0,0,1-.66-1.8A3.09,3.09,0,0,1,322.6,35a3.42,3.42,0,0,1,1.11-1.13,18.12,18.12,0,0,0,3.18,1.58,11.61,11.61,0,0,0,4.17.69,5.78,5.78,0,0,0,3.07-.67,2.08,2.08,0,0,0,1-1.85c0-1.35-1-2.24-3-2.67l-2.76-.64A11.42,11.42,0,0,1,324,27.8a5.91,5.91,0,0,1-1.75-4.49,6.29,6.29,0,0,1,2.56-5.21c1.71-1.33,4.12-2,7.21-2a18.72,18.72,0,0,1,3.29.27,10.86,10.86,0,0,1,2.61.79,5.1,5.1,0,0,1,1.73,1.24,2.45,2.45,0,0,1,.62,1.65,3,3,0,0,1-.4,1.56,3.57,3.57,0,0,1-.93,1.06,7,7,0,0,0-1.17-.6c-.47-.19-1-.37-1.58-.54s-1.18-.3-1.82-.42a11.27,11.27,0,0,0-1.9-.17,6.07,6.07,0,0,0-3,.62,1.92,1.92,0,0,0-1.08,1.75,1.73,1.73,0,0,0,.62,1.38,5,5,0,0,0,2.14.89l2.42.59a12.37,12.37,0,0,1,5.93,2.74A6.34,6.34,0,0,1,341.33,33.63Z"/><path class="cls-1" d="M353.55,35.26a4.59,4.59,0,0,0,2.7.69,7.73,7.73,0,0,0,1.7-.2,8.82,8.82,0,0,0,1.55-.49,3.23,3.23,0,0,1,.67,1,3,3,0,0,1,.27,1.31A2.89,2.89,0,0,1,359.11,40a7.4,7.4,0,0,1-4.3,1,9.71,9.71,0,0,1-6.14-1.76c-1.5-1.16-2.25-3.1-2.25-5.8V10.72c.26-.07.65-.15,1.16-.25a8.58,8.58,0,0,1,1.65-.15,4.1,4.1,0,0,1,2.55.65,2.73,2.73,0,0,1,.81,2.27v4.09h7.26a4.7,4.7,0,0,1,.44,1,4.43,4.43,0,0,1,.2,1.38,2.58,2.58,0,0,1-.59,1.88,2.12,2.12,0,0,1-1.58.59h-5.73V33A2.61,2.61,0,0,0,353.55,35.26Z"/><path class="cls-2" d="M132.38,57.37a2.15,2.15,0,0,1-.44,1.36,3,3,0,0,1-1.24.87,2.56,2.56,0,0,1,2.05,2.54,2.86,2.86,0,0,1-1.3,2.59,6.94,6.94,0,0,1-3.75.84H127l-.84-.07c-.29,0-.57-.08-.86-.14a3.72,3.72,0,0,1-.78-.22,1.32,1.32,0,0,1-1-1.29V55.57a.82.82,0,0,1,.2-.58,1.51,1.51,0,0,1,.56-.33,7.11,7.11,0,0,1,1.51-.31c.6-.06,1.22-.1,1.86-.1a6.62,6.62,0,0,1,3.49.77A2.57,2.57,0,0,1,132.38,57.37Zm-5.83,1.38h1.29a1.74,1.74,0,0,0,1.11-.28,1,1,0,0,0,.35-.83.9.9,0,0,0-.4-.76,2.08,2.08,0,0,0-1.2-.29l-.61,0a5,5,0,0,0-.54,0Zm3,3.25c0-.72-.48-1.08-1.45-1.08h-1.58v2.16a3.27,3.27,0,0,0,.64.09l.74,0a2.24,2.24,0,0,0,1.18-.29A1,1,0,0,0,129.58,62Z"/><path class="cls-2" d="M137.16,64.9a1.64,1.64,0,0,1-.44-1.2V56.2a1.52,1.52,0,0,1,1.65-1.64h5.84a2.22,2.22,0,0,1,.32,1.16,1.36,1.36,0,0,1-.28,1,1,1,0,0,1-.78.3h-3.74v1.65h4a2.65,2.65,0,0,1,.22.5,2.31,2.31,0,0,1,.09.67,1.33,1.33,0,0,1-.28,1A1.06,1.06,0,0,1,143,61h-3.24V62.9h4.55a1.74,1.74,0,0,1,.22.51,2.26,2.26,0,0,1,.1.69,1.32,1.32,0,0,1-.28,1,1,1,0,0,1-.78.29h-5.17A1.62,1.62,0,0,1,137.16,64.9Z"/><path class="cls-2" d="M156.89,55.07a2.5,2.5,0,0,1,.09.69,1.33,1.33,0,0,1-.29,1,1,1,0,0,1-.79.31h-2v8.23a4.78,4.78,0,0,1-.6.11,7.55,7.55,0,0,1-.83.05,2,2,0,0,1-1.31-.32A1.48,1.48,0,0,1,150.8,64V57h-2.67a1.81,1.81,0,0,1-.22-.52,2.17,2.17,0,0,1-.1-.69,1.37,1.37,0,0,1,.29-1,1,1,0,0,1,.79-.3h7.78A2.5,2.5,0,0,1,156.89,55.07Z"/><path class="cls-2" d="M169.13,55.07a2.5,2.5,0,0,1,.1.69,1.33,1.33,0,0,1-.3,1,1,1,0,0,1-.79.31h-2v8.23a4.78,4.78,0,0,1-.6.11,7.55,7.55,0,0,1-.83.05,1.94,1.94,0,0,1-1.3-.32A1.44,1.44,0,0,1,163,64V57h-2.67a1.81,1.81,0,0,1-.22-.52,2.17,2.17,0,0,1-.1-.69,1.37,1.37,0,0,1,.29-1,1.06,1.06,0,0,1,.79-.3h7.78A2.5,2.5,0,0,1,169.13,55.07Z"/><path class="cls-2" d="M173.39,64.9a1.61,1.61,0,0,1-.45-1.2V56.2a1.61,1.61,0,0,1,.45-1.2,1.59,1.59,0,0,1,1.2-.44h5.85a2.53,2.53,0,0,1,.22.49,2.35,2.35,0,0,1,.1.67,1.36,1.36,0,0,1-.29,1,1,1,0,0,1-.78.3H176v1.65h4a1.79,1.79,0,0,1,.22.5,2,2,0,0,1,.1.67,1.33,1.33,0,0,1-.28,1,1.06,1.06,0,0,1-.78.29H176V62.9h4.55a2,2,0,0,1,.22.51,2.26,2.26,0,0,1,.1.69,1.32,1.32,0,0,1-.29,1,1,1,0,0,1-.77.29h-5.18A1.59,1.59,0,0,1,173.39,64.9Z"/><path class="cls-2" d="M193.65,58.06a3.14,3.14,0,0,1-.52,1.8,4.14,4.14,0,0,1-1.39,1.3c.22.31.45.61.68.89s.45.55.65.81.38.51.54.73.29.43.4.6a1.69,1.69,0,0,1-.65,1,1.77,1.77,0,0,1-1.05.33,2.29,2.29,0,0,1-.68-.09,1.62,1.62,0,0,1-.49-.25,1.8,1.8,0,0,1-.39-.39c-.12-.15-.23-.32-.34-.49l-1.5-2.43H188v3.45a4.78,4.78,0,0,1-.6.11,7.73,7.73,0,0,1-.84.05,2,2,0,0,1-1.3-.32,1.48,1.48,0,0,1-.36-1.15V55.57a.82.82,0,0,1,.2-.58,1.51,1.51,0,0,1,.56-.33,7.1,7.1,0,0,1,1.4-.31,15.1,15.1,0,0,1,1.7-.1,5.61,5.61,0,0,1,3.68,1A3.42,3.42,0,0,1,193.65,58.06Zm-4.83,1.4a2,2,0,0,0,1.22-.34,1.18,1.18,0,0,0,.48-1,1.23,1.23,0,0,0-.44-1,2.19,2.19,0,0,0-1.37-.35l-.4,0-.38.06v2.65Z"/><path class="cls-2" d="M216.78,59.91a6.69,6.69,0,0,1-.43,2.45,4.86,4.86,0,0,1-3,2.88,6.91,6.91,0,0,1-4.46,0,4.87,4.87,0,0,1-1.77-1.1A5,5,0,0,1,206,62.35a7.09,7.09,0,0,1,0-4.89,5.09,5.09,0,0,1,1.18-1.78A5.2,5.2,0,0,1,209,54.59a6.79,6.79,0,0,1,4.42,0,5.24,5.24,0,0,1,1.78,1.09,5.11,5.11,0,0,1,1.19,1.78A6.41,6.41,0,0,1,216.78,59.91Zm-3.19,0a3.71,3.71,0,0,0-.66-2.4,2.18,2.18,0,0,0-1.77-.79,2.15,2.15,0,0,0-1.74.79,3.6,3.6,0,0,0-.67,2.4,3.7,3.7,0,0,0,.66,2.4,2.34,2.34,0,0,0,3.52,0A3.7,3.7,0,0,0,213.59,59.91Z"/><path class="cls-2" d="M229.77,65.3a4.1,4.1,0,0,1-1.12.13,3.94,3.94,0,0,1-1.25-.19,1.73,1.73,0,0,1-1-.94l-1.76-3.58c-.17-.37-.33-.71-.47-1s-.3-.7-.46-1.12l-.13,0c.06.75.09,1.44.1,2.07s0,1.24,0,1.81v2.82l-.59.09a6.84,6.84,0,0,1-.79.05,1.87,1.87,0,0,1-1.25-.31,1.42,1.42,0,0,1-.35-1.1V55.11a1.51,1.51,0,0,1,.76-.54,3.62,3.62,0,0,1,1.1-.17,3.72,3.72,0,0,1,1.25.2,1.72,1.72,0,0,1,.95.93l1.77,3.58c.18.36.34.71.48,1s.29.7.46,1.13l.07,0c0-.56-.07-1.1-.08-1.6s0-1,0-1.44V54.5l.59-.09a6.84,6.84,0,0,1,.79,0,1.87,1.87,0,0,1,1.25.31,1.46,1.46,0,0,1,.35,1.11v9.14A1.75,1.75,0,0,1,229.77,65.3Z"/><path class="cls-2" d="M251.48,55.07a2.5,2.5,0,0,1,.09.69,1.33,1.33,0,0,1-.29,1,1,1,0,0,1-.79.31h-2v8.23a4.78,4.78,0,0,1-.6.11,7.55,7.55,0,0,1-.83.05,2,2,0,0,1-1.31-.32,1.48,1.48,0,0,1-.36-1.15V57h-2.67a2.12,2.12,0,0,1-.23-.52,2.5,2.5,0,0,1-.09-.69,1.33,1.33,0,0,1,.29-1,1,1,0,0,1,.79-.3h7.77A2,2,0,0,1,251.48,55.07Z"/><path class="cls-2" d="M257.79,65.38a7.55,7.55,0,0,1-.83.05,1.94,1.94,0,0,1-1.3-.32,1.44,1.44,0,0,1-.37-1.15V54.52l.62-.1a5.66,5.66,0,0,1,.82-.06,2.1,2.1,0,0,1,1.27.3,1.42,1.42,0,0,1,.39,1.17V58.7h3.4V54.52l.62-.1a5.76,5.76,0,0,1,.82-.06,2,2,0,0,1,1.27.32,1.48,1.48,0,0,1,.39,1.19v9.4a4.78,4.78,0,0,1-.6.11,7.55,7.55,0,0,1-.83.05,1.94,1.94,0,0,1-1.3-.32,1.48,1.48,0,0,1-.37-1.15V61.15h-3.4v4.12A4.78,4.78,0,0,1,257.79,65.38Z"/><path class="cls-2" d="M269.85,64.9a1.64,1.64,0,0,1-.44-1.2V56.2a1.52,1.52,0,0,1,1.65-1.64h5.85a2.53,2.53,0,0,1,.22.49,2.36,2.36,0,0,1,.09.67,1.36,1.36,0,0,1-.28,1,1,1,0,0,1-.78.3h-3.74v1.65h4a2.14,2.14,0,0,1,.22.5,2,2,0,0,1,.1.67,1.33,1.33,0,0,1-.29,1,1,1,0,0,1-.78.29h-3.24V62.9H277a2.5,2.5,0,0,1,.22.51,2.61,2.61,0,0,1,.09.69,1.32,1.32,0,0,1-.28,1,1,1,0,0,1-.78.29h-5.17A1.62,1.62,0,0,1,269.85,64.9Z"/><path class="cls-2" d="M294.52,57.18a4.51,4.51,0,0,1,.61-.21,3.46,3.46,0,0,1,.84-.11,3,3,0,0,1,1.24.22,1,1,0,0,1,.6.65c.13.48.25.93.37,1.35s.22.82.32,1.21.21.76.31,1.14.2.77.3,1.19h.08c.11-.72.21-1.41.29-2.07s.16-1.3.23-1.93l.21-1.88.21-1.88a2.81,2.81,0,0,1,1.4-.38,2.19,2.19,0,0,1,1.14.29,1,1,0,0,1,.48.95c0,.26,0,.63-.08,1.11s-.13,1-.22,1.61-.19,1.21-.31,1.86-.24,1.27-.37,1.86-.26,1.12-.4,1.6a7.3,7.3,0,0,1-.38,1.11,2.08,2.08,0,0,1-.87.4,4.63,4.63,0,0,1-1.24.16,3.85,3.85,0,0,1-1.4-.22,1,1,0,0,1-.7-.63c-.16-.47-.32-1-.5-1.68s-.37-1.36-.57-2.14q-.24,1.14-.51,2.25t-.48,1.86a2,2,0,0,1-.8.4,3.9,3.9,0,0,1-1.17.16,4.35,4.35,0,0,1-1.44-.22,1.37,1.37,0,0,1-.84-.63,6.21,6.21,0,0,1-.35-.95c-.12-.41-.25-.89-.38-1.43s-.26-1.12-.4-1.75-.26-1.25-.37-1.87-.21-1.24-.31-1.84-.16-1.14-.21-1.63a2.56,2.56,0,0,1,1.65-.63,1.88,1.88,0,0,1,1.1.3,1.34,1.34,0,0,1,.54,1c.19,1.21.35,2.21.47,3s.23,1.46.3,2,.14.91.17,1.19.07.51.11.68h.09c.1-.48.2-.91.3-1.31s.19-.81.29-1.22.21-.84.31-1.31S294.4,57.78,294.52,57.18Z"/><path class="cls-2" d="M312.78,63.06h-3.2c-.12.42-.23.82-.31,1.19l-.26,1a4.44,4.44,0,0,1-.52.15,2.65,2.65,0,0,1-.67.07,2.39,2.39,0,0,1-1.34-.31,1,1,0,0,1-.43-.86,1.73,1.73,0,0,1,.07-.5c.05-.16.1-.36.16-.58s.2-.72.35-1.2.31-1,.48-1.54.37-1.11.57-1.68l.57-1.63c.17-.52.34-1,.48-1.39l.35-.93a3.79,3.79,0,0,1,.91-.33,4.72,4.72,0,0,1,1.23-.16,4.24,4.24,0,0,1,1.57.26,1.34,1.34,0,0,1,.88.82c.21.6.44,1.31.69,2.12s.49,1.66.74,2.53.49,1.72.73,2.57.44,1.59.62,2.24a1.53,1.53,0,0,1-.64.4,3,3,0,0,1-1,.15,1.88,1.88,0,0,1-1.2-.29,1.66,1.66,0,0,1-.5-.9Zm-1.57-5.9c-.17.48-.35,1-.55,1.61s-.4,1.22-.59,1.9h2.2c-.17-.68-.34-1.31-.51-1.91s-.32-1.13-.45-1.6Z"/><path class="cls-2" d="M327.74,55.07a2.17,2.17,0,0,1,.1.69,1.37,1.37,0,0,1-.29,1,1,1,0,0,1-.79.31h-2v8.23a4.66,4.66,0,0,1-.61.11,7.4,7.4,0,0,1-.83.05,2,2,0,0,1-1.3-.32,1.48,1.48,0,0,1-.36-1.15V57H319a2.62,2.62,0,0,1-.22-.52,2.5,2.5,0,0,1-.1-.69,1.33,1.33,0,0,1,.3-1,1,1,0,0,1,.78-.3h7.78A2,2,0,0,1,327.74,55.07Z"/><path class="cls-2" d="M332,64.9a1.64,1.64,0,0,1-.44-1.2V56.2a1.52,1.52,0,0,1,1.65-1.64h5.84a1.72,1.72,0,0,1,.22.49,2,2,0,0,1,.1.67,1.36,1.36,0,0,1-.28,1,1,1,0,0,1-.78.3h-3.74v1.65h4a2.65,2.65,0,0,1,.22.5,2.3,2.3,0,0,1,.1.67,1.33,1.33,0,0,1-.29,1,1.06,1.06,0,0,1-.78.29h-3.24V62.9h4.55a2,2,0,0,1,.23.51,2.61,2.61,0,0,1,.09.69,1.32,1.32,0,0,1-.28,1,1,1,0,0,1-.78.29h-5.17A1.62,1.62,0,0,1,332,64.9Z"/><path class="cls-2" d="M352.27,58.06a3.22,3.22,0,0,1-.52,1.8,4.17,4.17,0,0,1-1.4,1.3c.23.31.46.61.69.89s.44.55.64.81.38.51.54.73.3.43.4.6a1.67,1.67,0,0,1-.64,1,1.82,1.82,0,0,1-1.06.33,2.22,2.22,0,0,1-.67-.09,1.56,1.56,0,0,1-.5-.25,1.8,1.8,0,0,1-.39-.39,4.2,4.2,0,0,1-.33-.49l-1.51-2.43h-.94v3.45a4.78,4.78,0,0,1-.6.11,7.55,7.55,0,0,1-.83.05,2,2,0,0,1-1.31-.32,1.48,1.48,0,0,1-.36-1.15V55.57a.78.78,0,0,1,.21-.58,1.46,1.46,0,0,1,.55-.33,7.1,7.1,0,0,1,1.4-.31,15.1,15.1,0,0,1,1.7-.1,5.66,5.66,0,0,1,3.69,1A3.45,3.45,0,0,1,352.27,58.06Zm-4.84,1.4a2,2,0,0,0,1.22-.34,1.18,1.18,0,0,0,.48-1,1.22,1.22,0,0,0-.43-1,2.21,2.21,0,0,0-1.37-.35l-.4,0a2.5,2.5,0,0,0-.38.06v2.65Z"/><g id="UgS8Pt"><path class="cls-2" d="M24.42,34l42.86-6.52c1.18-.13,1.85,1.75,1,2.84L59.52,43.62a1.15,1.15,0,0,1-.9.48H26.42a.64.64,0,0,1-.55-.5l-2.51-7.22C23,35.33,23.54,34.13,24.42,34Z"/></g><g id="UgS8Pt-2" data-name="UgS8Pt"><path class="cls-2" d="M52.77,24.35l1.44,2.13a.89.89,0,0,1-.72,1.37h0c-.32,0-14.11,1.53-14.11,1.53a.9.9,0,0,1-1-.56l-1.31-3.69A.9.9,0,0,1,38,23.9l14.06,0A.91.91,0,0,1,52.77,24.35Z"/></g><path class="cls-3" d="M77.06,40.21c.1-1.05.16-2.12.16-3.2,0-.78,0-1.57-.09-2.34a31.26,31.26,0,0,0-62.35,0c-.06.77-.09,1.55-.09,2.33,0,1.08.06,2.15.16,3.2l-5.75.2C9,39.29,8.94,38.16,8.94,37c0-.78,0-1.56.08-2.33a37,37,0,0,1,73.87,0c0,.78.08,1.56.08,2.34,0,1.15-.06,2.29-.16,3.41Z"/><path class="cls-2" d="M74.5,54.24H17.41a2.88,2.88,0,1,0,0,5.75H74.5a2.88,2.88,0,1,0,0-5.75Z"/><path class="cls-2" d="M61.45,68.28h-31a2.88,2.88,0,1,0,0,5.75h31a2.88,2.88,0,1,0,0-5.75Z"/><path class="cls-2" d="M89,40.21H2.87a2.87,2.87,0,0,0,0,5.74H89a2.87,2.87,0,1,0,0-5.74Z"/><path class="cls-1" d="M366.48,6.72a1,1,0,0,1,0,.36.75.75,0,0,1-.15.5.54.54,0,0,1-.42.17h-1.67v6.08l-.31.06-.42,0a1,1,0,0,1-.66-.17.71.71,0,0,1-.2-.57V7.75h-2a1.38,1.38,0,0,1-.11-.27,1,1,0,0,1-.06-.35.74.74,0,0,1,.15-.51.57.57,0,0,1,.42-.16h5.3A1.29,1.29,0,0,1,366.48,6.72Z"/><path class="cls-1" d="M372.78,12a1,1,0,0,1-.31.16,1.53,1.53,0,0,1-.45.06,1.6,1.6,0,0,1-.53-.08.5.5,0,0,1-.3-.29l-.84-2.11c-.23-.59-.41-1.09-.55-1.5h-.06q0,.81-.06,1.5l-.06,1.33c0,.43,0,.87-.05,1.32s-.05.92-.08,1.44l-.31.08a2.34,2.34,0,0,1-.38,0c-.55,0-.82-.2-.82-.6,0-.13,0-.34,0-.61s0-.58.05-.94,0-.76.07-1.19l.09-1.3c0-.44.05-.87.09-1.3s.06-.82.08-1.18a1.29,1.29,0,0,1,.36-.25,1.45,1.45,0,0,1,.67-.13,1.61,1.61,0,0,1,.75.15,1,1,0,0,1,.43.51c.11.25.22.53.34.83s.24.6.36.92.24.63.36.93.22.59.33.86h0c.27-.77.55-1.5.82-2.22s.51-1.31.71-1.81a1.42,1.42,0,0,1,.38-.12,2.42,2.42,0,0,1,.47,0,1.62,1.62,0,0,1,.72.14.57.57,0,0,1,.33.4c0,.15.07.4.11.73s.08.72.12,1.15.08.89.12,1.38.08.95.11,1.4.06.86.08,1.23,0,.67.05.88a1.22,1.22,0,0,1-.33.14,1.37,1.37,0,0,1-.43.05,1.25,1.25,0,0,1-.56-.12.58.58,0,0,1-.26-.48c0-.52-.06-1-.08-1.51s-.05-1-.06-1.39,0-.84-.05-1.21,0-.68,0-1h-.06c-.13.38-.31.86-.53,1.45S373.13,11.05,372.78,12Z"/></g></g></svg>