<svg xmlns="http://www.w3.org/2000/svg" viewBox="0 0 258.73 115.53"><defs><style>.cls-1{fill:#fff;}.cls-2{fill:#339ff2;}.cls-3{fill:#ffdd15;}</style></defs><g id="Layer_2" data-name="Layer 2"><g id="Layer_2-2" data-name="Layer 2"><path class="cls-1" d="M11.7,90.69a12.56,12.56,0,0,1,4.42.77,9.67,9.67,0,0,1,3.58,2.32,11,11,0,0,1,2.4,3.85A15.47,15.47,0,0,1,23,103a15.22,15.22,0,0,1-.89,5.43,10.52,10.52,0,0,1-2.52,3.9,10.44,10.44,0,0,1-3.92,2.37,15.83,15.83,0,0,1-5.11.79,16.17,16.17,0,0,1-5-.69A14.19,14.19,0,0,1,2,113.21,5,5,0,0,1,.49,111.7a3.67,3.67,0,0,1-.49-2V82.69a6.08,6.08,0,0,1,1.16-.27,11.05,11.05,0,0,1,1.7-.12,4.19,4.19,0,0,1,2.57.64,2.7,2.7,0,0,1,.84,2.27V92a11.55,11.55,0,0,1,2.4-.92A11.75,11.75,0,0,1,11.7,90.69Zm-1.08,4.94a6.67,6.67,0,0,0-2.45.44,11.81,11.81,0,0,0-1.95,1v12.35a9.38,9.38,0,0,0,1.73.76,7.69,7.69,0,0,0,2.52.37,5.72,5.72,0,0,0,4.44-1.85c1.12-1.23,1.68-3.12,1.68-5.65s-.55-4.45-1.65-5.63A5.63,5.63,0,0,0,10.62,95.63Z"/><path class="cls-1" d="M51.1,103.09a14.7,14.7,0,0,1-.86,5.16,11.24,11.24,0,0,1-2.45,3.92,10.38,10.38,0,0,1-3.8,2.49,13.55,13.55,0,0,1-5,.87,13.57,13.57,0,0,1-5-.87,10.57,10.57,0,0,1-3.8-2.46,11,11,0,0,1-2.45-3.9,14.9,14.9,0,0,1-.86-5.21,14.7,14.7,0,0,1,.86-5.16,10.67,10.67,0,0,1,6.3-6.37,14.43,14.43,0,0,1,9.87,0,10.67,10.67,0,0,1,3.83,2.49A11.09,11.09,0,0,1,50.24,98,14.53,14.53,0,0,1,51.1,103.09ZM39,95.63a5,5,0,0,0-4.2,2,8.75,8.75,0,0,0-1.53,5.51,8.86,8.86,0,0,0,1.5,5.53A5.08,5.08,0,0,0,39,110.54a5,5,0,0,0,4.22-2,8.84,8.84,0,0,0,1.5-5.5,8.75,8.75,0,0,0-1.53-5.51A5,5,0,0,0,39,95.63Z"/><path class="cls-1" d="M65.32,90.69a12.94,12.94,0,0,1,7.73,2.08q2.9,2.07,2.89,6.42v11.4a2.82,2.82,0,0,1-.59,1.88,6.25,6.25,0,0,1-1.48,1.23A11.92,11.92,0,0,1,70.36,115a21.43,21.43,0,0,1-4.84.5,13.92,13.92,0,0,1-7.78-1.9,6.42,6.42,0,0,1-2.84-5.71,6.23,6.23,0,0,1,2.1-5.06,11.12,11.12,0,0,1,6.1-2.14l6.77-.7v-.88a3.08,3.08,0,0,0-1.36-2.77,7,7,0,0,0-3.83-.89,15.17,15.17,0,0,0-3.75.47,17.23,17.23,0,0,0-3.26,1.16,3.16,3.16,0,0,1-.91-1.06,2.91,2.91,0,0,1-.37-1.46,2.54,2.54,0,0,1,.47-1.6,4,4,0,0,1,1.5-1.11A14.58,14.58,0,0,1,61.62,91,22.8,22.8,0,0,1,65.32,90.69Zm.2,20.1a11.78,11.78,0,0,0,2.62-.27,5,5,0,0,0,1.73-.67v-5.48l-4.79.44a7,7,0,0,0-3,.87,2.3,2.3,0,0,0-1,2.1A2.61,2.61,0,0,0,62.09,110,5.8,5.8,0,0,0,65.52,110.79Z"/><path class="cls-1" d="M89.29,109.8a4.59,4.59,0,0,0,2.7.69,7.23,7.23,0,0,0,1.7-.2,8.82,8.82,0,0,0,1.55-.49,3.36,3.36,0,0,1,.67,1,3,3,0,0,1,.27,1.31,2.92,2.92,0,0,1-1.33,2.45,7.49,7.49,0,0,1-4.3,1,9.77,9.77,0,0,1-6.14-1.75q-2.25-1.76-2.25-5.81V85.26L83.32,85A9.49,9.49,0,0,1,85,84.87a4.11,4.11,0,0,1,2.55.64,2.74,2.74,0,0,1,.81,2.27v4.1h7.26a4.6,4.6,0,0,1,.44,1,4.45,4.45,0,0,1,.2,1.39,2.57,2.57,0,0,1-.59,1.87,2.13,2.13,0,0,1-1.58.6H88.33v10.76A2.61,2.61,0,0,0,89.29,109.8Z"/><path class="cls-1" d="M105.71,105.9a5.83,5.83,0,0,0,2.57,3.65,8.79,8.79,0,0,0,4.64,1.14,11.52,11.52,0,0,0,3.83-.62,13.59,13.59,0,0,0,2.84-1.31,3.27,3.27,0,0,1,1.13,1.09,2.68,2.68,0,0,1,.45,1.48,2.61,2.61,0,0,1-.67,1.75,5.32,5.32,0,0,1-1.83,1.31,11.07,11.07,0,0,1-2.74.84,18.23,18.23,0,0,1-3.4.3,17,17,0,0,1-5.31-.79,10.9,10.9,0,0,1-4.1-2.4,11.16,11.16,0,0,1-2.67-4,14.65,14.65,0,0,1-1-5.53,13.79,13.79,0,0,1,.94-5.33A10.84,10.84,0,0,1,103,93.7a10.27,10.27,0,0,1,3.73-2.27,13.6,13.6,0,0,1,4.49-.74,12.49,12.49,0,0,1,4.45.77,10.19,10.19,0,0,1,3.45,2.12,9.61,9.61,0,0,1,2.25,3.26,10.41,10.41,0,0,1,.81,4.12,2.76,2.76,0,0,1-.71,2.08,3.6,3.6,0,0,1-2,.88Zm5.48-10.52a5.56,5.56,0,0,0-4,1.61,6.8,6.8,0,0,0-1.82,4.56l11-1.62a5.53,5.53,0,0,0-1.43-3.19A4.72,4.72,0,0,0,111.19,95.38Z"/><path class="cls-1" d="M133.26,114.74l-1.18.25a9.5,9.5,0,0,1-1.68.14,4.21,4.21,0,0,1-2.57-.64,2.69,2.69,0,0,1-.84-2.27V96.57a3.77,3.77,0,0,1,.6-2.17,5.3,5.3,0,0,1,1.72-1.58,14.1,14.1,0,0,1,3.78-1.54,19.26,19.26,0,0,1,4.86-.59q4.7,0,4.7,2.92a3.74,3.74,0,0,1-.23,1.3,5.17,5.17,0,0,1-.47,1,14.71,14.71,0,0,0-6.07.14,12.17,12.17,0,0,0-2.62,1Z"/><path class="cls-1" d="M164.81,108.17a6.41,6.41,0,0,1-2.56,5.41q-2.58,2-7.51,2a20.76,20.76,0,0,1-3.68-.3,11.63,11.63,0,0,1-2.86-.86,5.34,5.34,0,0,1-1.88-1.38,2.83,2.83,0,0,1-.66-1.81,3.12,3.12,0,0,1,.42-1.63,3.42,3.42,0,0,1,1.11-1.13,17.46,17.46,0,0,0,3.18,1.58,11.61,11.61,0,0,0,4.17.69,5.71,5.71,0,0,0,3.07-.67,2.08,2.08,0,0,0,1-1.85c0-1.35-1-2.24-3-2.66l-2.77-.65a11.43,11.43,0,0,1-5.4-2.52,5.9,5.9,0,0,1-1.75-4.49,6.3,6.3,0,0,1,2.56-5.21c1.71-1.33,4.12-2,7.21-2a18.52,18.52,0,0,1,3.28.27,11.27,11.27,0,0,1,2.62.79,5.1,5.1,0,0,1,1.73,1.24,2.47,2.47,0,0,1,.62,1.65,3,3,0,0,1-.4,1.56,3.35,3.35,0,0,1-.94,1.06,6.51,6.51,0,0,0-1.16-.59,14.45,14.45,0,0,0-1.58-.55c-.57-.16-1.18-.3-1.82-.42a11.37,11.37,0,0,0-1.9-.17,6.18,6.18,0,0,0-3,.62,1.92,1.92,0,0,0-1.08,1.75,1.73,1.73,0,0,0,.62,1.38,4.86,4.86,0,0,0,2.14.89l2.42.6a12.28,12.28,0,0,1,5.93,2.74A6.34,6.34,0,0,1,164.81,108.17Z"/><path class="cls-1" d="M185.08,115a9.49,9.49,0,0,1-1.65.14,4.16,4.16,0,0,1-2.59-.64,2.71,2.71,0,0,1-.82-2.27V82.69a6.08,6.08,0,0,1,1.16-.27,10.7,10.7,0,0,1,1.66-.12,4.2,4.2,0,0,1,2.59.64,2.76,2.76,0,0,1,.81,2.27v29.53Z"/><path class="cls-1" d="M192.61,84.42a3.34,3.34,0,0,1,1-2.44,3.5,3.5,0,0,1,2.6-1,3.4,3.4,0,0,1,2.56,1,3.36,3.36,0,0,1,1,2.44,3.42,3.42,0,0,1-3.55,3.51,3.54,3.54,0,0,1-2.6-1A3.42,3.42,0,0,1,192.61,84.42Zm.49,7.16c.27-.06.65-.15,1.17-.25a9.4,9.4,0,0,1,1.65-.14,4.18,4.18,0,0,1,2.59.64,2.75,2.75,0,0,1,.82,2.27v20.64l-1.16.25a9.69,9.69,0,0,1-1.66.14,4.18,4.18,0,0,1-2.59-.64,2.75,2.75,0,0,1-.82-2.27Z"/><path class="cls-1" d="M224,108.17a6.41,6.41,0,0,1-2.56,5.41q-2.58,2-7.51,2a20.76,20.76,0,0,1-3.68-.3,11.63,11.63,0,0,1-2.86-.86,5.34,5.34,0,0,1-1.88-1.38,2.83,2.83,0,0,1-.66-1.81,3.12,3.12,0,0,1,.42-1.63,3.42,3.42,0,0,1,1.11-1.13,17.46,17.46,0,0,0,3.18,1.58,11.61,11.61,0,0,0,4.17.69,5.71,5.71,0,0,0,3.07-.67,2.08,2.08,0,0,0,1-1.85c0-1.35-1-2.24-3-2.66l-2.77-.65a11.43,11.43,0,0,1-5.4-2.52A5.9,5.9,0,0,1,205,97.85a6.3,6.3,0,0,1,2.56-5.21c1.71-1.33,4.12-2,7.21-2a18.52,18.52,0,0,1,3.28.27,11.27,11.27,0,0,1,2.62.79,5.1,5.1,0,0,1,1.73,1.24,2.47,2.47,0,0,1,.62,1.65,3,3,0,0,1-.4,1.56,3.35,3.35,0,0,1-.94,1.06,6.51,6.51,0,0,0-1.16-.59,14.45,14.45,0,0,0-1.58-.55c-.57-.16-1.18-.3-1.82-.42a11.37,11.37,0,0,0-1.9-.17,6.18,6.18,0,0,0-3,.62,1.92,1.92,0,0,0-1.08,1.75,1.75,1.75,0,0,0,.61,1.38,5,5,0,0,0,2.15.89l2.42.6a12.28,12.28,0,0,1,5.93,2.74A6.34,6.34,0,0,1,224,108.17Z"/><path class="cls-1" d="M236.23,109.8a4.58,4.58,0,0,0,2.69.69,7.25,7.25,0,0,0,1.71-.2,8.82,8.82,0,0,0,1.55-.49,3.36,3.36,0,0,1,.67,1,3,3,0,0,1,.27,1.31,2.92,2.92,0,0,1-1.33,2.45,7.49,7.49,0,0,1-4.3,1,9.77,9.77,0,0,1-6.14-1.75q-2.25-1.76-2.25-5.81V85.26l1.16-.25a9.49,9.49,0,0,1,1.65-.14,4.13,4.13,0,0,1,2.55.64,2.74,2.74,0,0,1,.81,2.27v4.1h7.26a4.6,4.6,0,0,1,.44,1,4.76,4.76,0,0,1,.2,1.39,2.57,2.57,0,0,1-.59,1.87,2.13,2.13,0,0,1-1.58.6h-5.73v10.76A2.61,2.61,0,0,0,236.23,109.8Z"/><g id="UgS8Pt"><path class="cls-2" d="M102.62,30.23l38.08-5.79c1.05-.12,1.64,1.55.89,2.53L133.8,38.75a1,1,0,0,1-.8.43H104.4a.59.59,0,0,1-.49-.45l-2.23-6.41C101.36,31.39,101.84,30.32,102.62,30.23Z"/></g><g id="UgS8Pt-2" data-name="UgS8Pt"><path class="cls-2" d="M127.81,21.63l1.28,1.9a.8.8,0,0,1-.64,1.22h0c-.29,0-12.54,1.35-12.54,1.35a.81.81,0,0,1-.84-.5l-1.17-3.27a.8.8,0,0,1,.75-1.09l12.48,0A.81.81,0,0,1,127.81,21.63Z"/></g><path class="cls-3" d="M149.39,35.72c.09-.93.14-1.88.14-2.84,0-.7,0-1.39-.08-2.08a27.77,27.77,0,0,0-55.39,0c0,.69-.08,1.38-.08,2.07,0,1,0,1.91.14,2.84L89,35.9c-.09-1-.14-2-.14-3,0-.69,0-1.38.07-2.07a32.88,32.88,0,0,1,65.63,0c.05.68.07,1.38.07,2.07,0,1,0,2-.14,3Z"/><path class="cls-2" d="M147.12,48.19H96.39a2.56,2.56,0,0,0,0,5.11h50.73a2.56,2.56,0,0,0,0-5.11Z"/><path class="cls-2" d="M135.52,60.66H108a2.56,2.56,0,1,0,0,5.11h27.53a2.56,2.56,0,1,0,0-5.11Z"/><path class="cls-2" d="M160,35.72H83.48a2.56,2.56,0,0,0,0,5.11H160a2.56,2.56,0,0,0,0-5.11Z"/><path class="cls-1" d="M249.16,81.26a1.36,1.36,0,0,1,.05.36.73.73,0,0,1-.15.5.54.54,0,0,1-.42.17H247v6.08l-.3.06a3,3,0,0,1-.43,0,1,1,0,0,1-.65-.17.75.75,0,0,1-.2-.58V82.29h-2a1.16,1.16,0,0,1-.11-.27,1,1,0,0,1-.06-.35.71.71,0,0,1,.15-.5.54.54,0,0,1,.42-.17H249A1.62,1.62,0,0,1,249.16,81.26Z"/><path class="cls-1" d="M255.46,86.52a.91.91,0,0,1-.31.16,1.56,1.56,0,0,1-.46.06,1.54,1.54,0,0,1-.52-.08.48.48,0,0,1-.3-.29L253,84.26c-.23-.58-.41-1.08-.55-1.5h-.06q0,.83-.06,1.5c0,.45,0,.9-.06,1.33s0,.87-.05,1.32-.05.93-.08,1.45l-.31.07a2.34,2.34,0,0,1-.39,0c-.54,0-.81-.21-.81-.61,0-.13,0-.33,0-.6s0-.59,0-1,0-.76.07-1.19.06-.86.08-1.3.06-.87.1-1.29.06-.82.08-1.19a1.15,1.15,0,0,1,.36-.25,1.94,1.94,0,0,1,1.42,0,.93.93,0,0,1,.43.5c.11.25.22.53.34.83s.23.61.36.92l.35.93.34.86h.05c.27-.76.55-1.5.82-2.21s.51-1.32.71-1.81a1.85,1.85,0,0,1,.38-.13,2.42,2.42,0,0,1,.47,0,1.63,1.63,0,0,1,.72.13.6.6,0,0,1,.33.4c0,.15.06.4.11.74s.08.72.12,1.14.08.89.12,1.38.07.95.11,1.4.06.86.08,1.24,0,.66.05.87a1.4,1.4,0,0,1-.33.15,1.75,1.75,0,0,1-.43,0,1.22,1.22,0,0,1-.56-.13.56.56,0,0,1-.26-.48c0-.51-.06-1-.08-1.5s-.05-1-.07-1.4,0-.84,0-1.2,0-.69,0-1h-.06c-.13.38-.31.87-.54,1.45Z"/></g></g></svg>