<svg xmlns="http://www.w3.org/2000/svg" viewBox="0 0 91.91 74.03"><g id="Layer_2" data-name="Layer 2"><g id="Layer_2-2" data-name="Layer 2"><g id="UgS8Pt"><path d="M24.42,34l42.86-6.52c1.18-.13,1.85,1.75,1,2.84L59.52,43.62a1.15,1.15,0,0,1-.9.48H26.42a.64.64,0,0,1-.55-.5l-2.51-7.22C23,35.33,23.54,34.13,24.42,34Z"/></g><g id="UgS8Pt-2" data-name="UgS8Pt"><path d="M52.77,24.35l1.44,2.13a.89.89,0,0,1-.72,1.37h0c-.32,0-14.11,1.53-14.11,1.53a.9.9,0,0,1-1-.56l-1.31-3.69A.9.9,0,0,1,38,23.9l14.06,0A.91.91,0,0,1,52.77,24.35Z"/></g><path d="M74.5,54.24H17.41a2.88,2.88,0,1,0,0,5.75H74.5a2.88,2.88,0,1,0,0-5.75Z"/><path d="M61.45,68.28h-31a2.88,2.88,0,1,0,0,5.75h31a2.88,2.88,0,1,0,0-5.75Z"/><path d="M89,40.21H2.87a2.87,2.87,0,0,0,0,5.74H89a2.87,2.87,0,1,0,0-5.74Z"/><path d="M77.06,40.21c.1-1.05.16-2.12.16-3.2,0-.78,0-1.57-.09-2.34a31.26,31.26,0,0,0-62.35,0c-.06.77-.09,1.55-.09,2.33,0,1.08.06,2.15.16,3.2l-5.75.2C9,39.29,8.94,38.16,8.94,37c0-.78,0-1.56.08-2.33a37,37,0,0,1,73.87,0c0,.78.08,1.56.08,2.34,0,1.15-.06,2.29-.16,3.41Z"/></g></g></svg>