<svg xmlns="http://www.w3.org/2000/svg" viewBox="0 0 90 90">
  <g id="Layer_2" data-name="Layer 2" stroke-width="1.5px" stroke="white">
    <path fill="#ffffff"
      d="M47.31,23.3a6.43,6.43,0,1,1,6.43-6.43A6.44,6.44,0,0,1,47.31,23.3Zm0-12a5.58,5.58,0,1,0,5.57,5.58A5.58,5.58,0,0,0,47.31,11.29Z">
    </path>
    <path fill="#ffffff"
      d="M52.36,79.56a5.37,5.37,0,0,1-4.1-1.79,4.81,4.81,0,0,0-3.72-1.64,4.84,4.84,0,0,0-4.14,1.78,5.78,5.78,0,0,1-1,.88,7.37,7.37,0,0,1-3.63.77v-1a6.59,6.59,0,0,0,3.1-.59,4.9,4.9,0,0,0,.81-.74,5.85,5.85,0,0,1,4.84-2.07,5.69,5.69,0,0,1,4.37,1.9,4.39,4.39,0,0,0,3.59,1.5v1Z">
    </path>
    <path fill="#ffffff"
      d="M35.66,79.56a5.35,5.35,0,0,1-4.1-1.79,4.81,4.81,0,0,0-3.72-1.64,4.84,4.84,0,0,0-4.14,1.78,6.19,6.19,0,0,1-1,.88,6.82,6.82,0,0,1-3.63.68v-1a6.16,6.16,0,0,0,3.1-.53,5.33,5.33,0,0,0,.81-.74,5.83,5.83,0,0,1,4.84-2.07,5.71,5.71,0,0,1,4.37,1.9,4.36,4.36,0,0,0,3.58,1.5v1Z">
    </path>
    <path fill="#ffffff"
      d="M19.09,79.56a5.7,5.7,0,0,1-4.37-1.91,4.39,4.39,0,0,0-3.59-1.5v-1h.14A5.35,5.35,0,0,1,15.37,77a4.81,4.81,0,0,0,3.72,1.64">
    </path>
    <path fill="#ffffff"
      d="M77.18,75.17a5.72,5.72,0,0,0-4.38,1.9,4.36,4.36,0,0,1-3.58,1.51v1h.13a5.42,5.42,0,0,0,4.11-1.78,4.76,4.76,0,0,1,3.72-1.65">
    </path>
    <path fill="#ffffff"
      d="M69.06,79.56A5.39,5.39,0,0,1,65,77.77a5.37,5.37,0,0,0-7.86.14,5.42,5.42,0,0,1-1,.88,7.35,7.35,0,0,1-3.62.77v-1A6.59,6.59,0,0,0,55.6,78a4.87,4.87,0,0,0,.8-.74,5.85,5.85,0,0,1,4.84-2.07,5.73,5.73,0,0,1,4.38,1.9,4.39,4.39,0,0,0,3.6,1.5v1Z">
    </path>
    <polygon fill="#ffffff"
      points="50.99 25.3 43.66 25.3 43.66 21.87 44.66 21.87 44.66 24.3 49.99 24.3 49.99 21.95 50.99 21.95 50.99 25.3">
    </polygon>
    <path fill="#ffffff"
      d="M52.07,73a3.31,3.31,0,0,1-3.3-3.31V50a.47.47,0,0,0-.38-.48.48.48,0,0,0-.57.25l-3.17,6.1-1,14.47a2.94,2.94,0,1,1-5.85-.48l1.54-16.64,2.3-7.47V39.44h1l0,6.48-2.29,7.5L38.75,69.9a1.9,1.9,0,0,0,.49,1.49,1.94,1.94,0,0,0,3.36-1.17l1.11-14.77,3.23-6.19a1.5,1.5,0,0,1,2.83.69V69.71a2.31,2.31,0,1,0,4.61,0V26.85L50.3,25.26l.37-.93,4.71,1.84V69.71A3.31,3.31,0,0,1,52.07,73Z">
    </path>
    <path fill="#ffffff"
      d="M42.07,40.05l-8.63-5a2.5,2.5,0,0,1-.93-3.41l.2-.35a2.51,2.51,0,0,1,3.37-.95l5.16,2.82,4.34-3.7.65.75-4.87,4.16L35.6,31.25a1.51,1.51,0,0,0-2,.58l-.2.35a1.51,1.51,0,0,0,.55,2l8,4.6,6.36-5.54L49,34Z">
    </path>
    <path fill="#ffffff"
      d="M41.12,30.38H29.44a2.51,2.51,0,0,1-2.5-2.5V26.8a2.5,2.5,0,0,1,2.5-2.5H44.15v1H29.44a1.5,1.5,0,0,0-1.5,1.5v1.08a1.51,1.51,0,0,0,1.5,1.5H41.12Z">
    </path>
    <rect fill="#ffffff" x="31.54" y="16.81" width="1.38" height="13.34"
      transform="translate(-5.1 9.45) rotate(-15.47)"></rect>
    <rect fill="#ffffff" x="40.54" y="35.09" width="1.38" height="41.81"
      transform="translate(-13.44 13.03) rotate(-15.47)"></rect>
    <path fill="#ffffff"
      d="M25.73,76.36,17.55,70.3a1.49,1.49,0,0,1,1-2.62H38.19v1H18.55a.5.5,0,0,0-.47.31.49.49,0,0,0,.12.55l8.12,6Z">
    </path>
    <path fill="#ffffff"
      d="M67,78.34l-.62-.78L76.56,69.5a.47.47,0,0,0,.08-.51.5.5,0,0,0-.47-.31H54.52v-1H76.17a1.5,1.5,0,0,1,1,2.57Z">
    </path>
    <rect fill="#ffffff" x="44.15" y="67.68" width="5.11" height="1"></rect>
  </g>
</svg>
