<svg viewBox="0 0 98 40" fill="none" xmlns="http://www.w3.org/2000/svg">
<path d="M21.4113 18.1979L22.2523 21.827H70.0689L78.4236 9.39167C79.0915 8.34376 78.256 6.92479 77.0157 7.13276L22.5241 16.2687C21.6467 16.416 21.1275 17.3454 21.4113 18.1979Z" fill="#959DAD"/>
<path d="M39.5589 1C38.5107 1 37.8451 2.12453 38.2729 3.08453L38.7502 4.29954C38.9952 4.84933 39.8478 5.03718 40.4382 4.99488L48.6636 4.29954L57.5285 3.6843C58.1402 3.6843 58.6721 3.22844 58.1402 2.30022L57.807 1.71874C57.5534 1.27588 57.0919 1 56.589 1H39.5589Z" fill="#959DAD"/>
<path d="M22.5241 23H21.4113L20.1548 18.6652C19.5887 16.9647 20.6354 15.1603 22.3155 14.8783L76.807 5.74242C79.1528 5.34907 80.8714 8.07068 79.5284 10.178L71.2675 23H69.2809M22.5241 23H69.2809M22.5241 23L22.2523 21.827M69.2809 23L70.0689 21.827M2.01129 21.827H3.35521M96.2422 21.827H94.8982M20.6163 21.827H22.2523M71.8197 21.827H70.0689M22.2523 21.827L21.4113 18.1979C21.1275 17.3454 21.6467 16.416 22.5241 16.2687L77.0157 7.13276C78.256 6.92479 79.0915 8.34376 78.4236 9.39167L70.0689 21.827M22.2523 21.827H70.0689M22.2523 21.827H1.83688C1.37468 21.827 1 22.1525 1 22.5541C1 22.9556 1.37468 23.2811 1.83688 23.2811H96.1631C96.6253 23.2811 97 22.9556 97 22.5541C97 22.1525 96.6253 21.827 96.1631 21.827H70.0689M39.5589 1C38.5107 1 37.8451 2.12453 38.2729 3.08453L38.7502 4.29954C38.9952 4.84933 39.8478 5.03718 40.4382 4.99488L48.6636 4.29954L57.5285 3.6843C58.1402 3.6843 58.6721 3.22844 58.1402 2.30022L57.807 1.71874C57.5534 1.27588 57.0919 1 56.589 1H39.5589ZM16 29.5H82.4568C82.9144 29.5 83.2852 29.8255 83.2852 30.227C83.2852 30.6285 82.9144 30.954 82.4568 30.954H16C15.5425 30.954 15.1716 30.6285 15.1716 30.227C15.1716 29.8255 15.5425 29.5 16 29.5ZM31.5 37.5H65.7851C66.2398 37.5 66.6085 37.8255 66.6085 38.227C66.6085 38.6286 66.2398 38.9541 65.7851 38.9541H31.5C31.0453 38.9541 30.6766 38.6286 30.6766 38.227C30.6766 37.8255 31.0453 37.5 31.5 37.5Z" stroke="#959DAD" stroke-width="2"/>
</svg>
