<svg xmlns="http://www.w3.org/2000/svg" viewBox="0 0 90 90">
  <g id="Layer_2" data-name="Layer 2" stroke-width="1.5px" stroke="white">
    <path fill="none" stroke="#fff" stroke-miterlimit="10" d="M42.84,46.92a21.36,21.36,0,0,1,2,9"></path>
    <path fill="none" stroke="#fff" stroke-miterlimit="10" d="M42.84,65a21.36,21.36,0,0,0,2-9"></path>
    <path fill="none" stroke="#fff" stroke-miterlimit="10"
      d="M49.34,55a2.58,2.58,0,0,1,2.93-2.46c1.66,0,3,1.94,3,4.33s-1.34,4.32-3,4.32c-1.42,0-2.62-.44-2.92-2.37"></path>
    <path stroke-width="2px" fill="none" stroke="#fff" stroke-miterlimit="10" d="M49.34,46s3.91-6.36,7.94-6.36S61.5,46,61.5,46"></path>
    <path stroke-width="2px" fill="none" stroke="#fff" stroke-miterlimit="10" d="M58.81,66.14s1,4.16,4.61,3.78S68,65,68,65"></path>
    <circle stroke-width="2px" fill="none" stroke="#fff" stroke-miterlimit="10" cx="38.52" cy="54.75" r="2.16"></circle>
    <path stroke-width="2px" fill="none" stroke="#fff" stroke-miterlimit="10"
      d="M84.87,48.11a6,6,0,0,0-3,.62c-1.76.94-2.2,1.6-4.42,3.39-3.78-3.68-12.72-6.27-23.16-6.27-13.85,0-25.07,4.56-25.07,10.18,0,4.3,6.58,8,15.88,9.47,1,.16,2,.29,3.08.4.82.08,1.65.15,2.49.2,1.18.07,2.39.1,3.62.1,10.44,0,19.38-2.58,23.16-6.26,2.22,1.79,2.66,2.44,4.42,3.39a6.06,6.06,0,0,0,3,.61,1,1,0,0,0,1-1V49.11A1,1,0,0,0,84.87,48.11Z">
    </path>
    <rect fill="#fff" x="14.26" y="9.17" width="1" height="23.39"></rect>
    <path fill="#fff"
      d="M14.76,41.57a7,7,0,1,1,7-7A7,7,0,0,1,14.76,41.57Zm0-12.95a6,6,0,1,0,6,6A6,6,0,0,0,14.76,28.62Z"></path>
    <path fill="#fff" d="M14.76,37.63a3,3,0,1,1,3-3A3,3,0,0,1,14.76,37.63Zm0-5.06a2,2,0,1,0,2,2A2,2,0,0,0,14.76,32.57Z">
    </path>
    <path fill="#fff"
      d="M25.6,60.46c-1.34-.49-3.57.23-5,1.21A2.92,2.92,0,0,0,19.11,64c0,.24,0,.8,2.31,1.54.33.18.62.32.87.43.77.36.91.43.91,1.43a7.86,7.86,0,0,1-15.72,0,7.52,7.52,0,0,1,1.25-4.81L8,61.84a8.43,8.43,0,0,0-1.54,5.51,8.86,8.86,0,0,0,17.72,0A2.05,2.05,0,0,0,22.71,65a8.48,8.48,0,0,1-.84-.43l-.09,0a6.85,6.85,0,0,1-1.66-.72,2.36,2.36,0,0,1,1.09-1.34c1.28-.9,3.17-1.41,4-1.09,1.6.59,2.38,2.6,2.38,6.14a12.29,12.29,0,0,1-24.58,0c0-4.74,2.47-7.9,6.18-11.21,3.92-3.49,3.52-15.29,3.5-15.79l-1,0c0,.11.41,11.83-3.17,15-3.91,3.48-6.51,6.84-6.51,12a13.29,13.29,0,0,0,26.58,0C28.63,66.06,28.63,61.58,25.6,60.46Z">
    </path>
    <path fill="#fff" d="M11.44,59l.71.71c6-4.88,5.66-18.52,5.64-19.12l-1,0C16.79,40.71,17.16,54.45,11.44,59Z"></path>
  </g>
</svg>
