<svg xmlns="http://www.w3.org/2000/svg" viewBox="0 0 90 90">
  <g id="Layer_2" data-name="Layer 2" stroke-width="1.5px" stroke="white">
    <path fill="#ffffff"
      d="M14.06,58c-.32-.08-7.92-2.05-11.06-8.6-1.06-2.19-.92-9.24,0-12,2.49-7.8,21.7-20.55,26.38-23.1s14.84-2.86,15.28-2.88l0,1c-.11,0-10.41.34-14.83,2.75-5.46,3-23.64,15.43-25.91,22.54C3,40.44,3,47.08,3.9,48.92,6.84,55.05,14.23,57,14.31,57Z">
    </path>
    <path fill="#ffffff"
      d="M44.62,78.38c-.12,0-11.54-.61-17.94-2.36A37.13,37.13,0,0,1,15,70.61,2.47,2.47,0,0,1,14,68.67V49.76h30.6v1H15V68.67a1.5,1.5,0,0,0,.55,1.16,36.06,36.06,0,0,0,11.35,5.23c6.3,1.72,17.61,2.31,17.73,2.32Z">
    </path>
    <rect fill="#ffffff" x="14.54" y="61.55" width="24.06" height="1"></rect>
    <path fill="#ffffff"
      d="M44.78,30.58a5.84,5.84,0,1,1,5.83-5.83A5.84,5.84,0,0,1,44.78,30.58Zm0-10.67a4.84,4.84,0,1,0,4.83,4.84A4.84,4.84,0,0,0,44.78,19.91Z">
    </path>
    <rect fill="#ffffff" x="44.28" y="30.08" width="1" height="15.28"></rect>
    <path fill="#ffffff" d="M44.3,40.55c-1.62,0-8.12-.34-12.26-5.63l.79-.61c4.34,5.54,11.71,5.24,11.79,5.24l.05,1Z">
    </path>
    <path fill="#ffffff"
      d="M75.35,57.94l-.24-1c.08,0,7.48-1.94,10.41-8.06.88-1.84.87-8.48,0-11.28C83.23,30.52,65.05,18.08,59.59,15.1c-4.42-2.41-14.73-2.75-14.83-2.75l0-1c.43,0,10.65.34,15.27,2.87S84,29.53,86.45,37.33c.88,2.77,1,9.82,0,12C83.28,55.89,75.68,57.86,75.35,57.94Z">
    </path>
    <path fill="#ffffff"
      d="M44.8,78.37l0-1c.11,0,11.43-.6,17.73-2.32a36.12,36.12,0,0,0,11.34-5.22,1.48,1.48,0,0,0,.55-1.16V50.75H44.78v-1H75.37V68.67a2.48,2.48,0,0,1-.92,1.94A37.35,37.35,0,0,1,62.74,76C56.34,77.76,44.92,78.36,44.8,78.37Z">
    </path>
    <rect fill="#ffffff" x="50.81" y="61.54" width="24.06" height="1"></rect>
    <path fill="#ffffff" d="M45.12,40.55h-.37l0-1c.08,0,7.46.29,11.79-5.24l.79.62C53.24,40.2,46.74,40.55,45.12,40.55Z">
    </path>
    <circle fill="#ffffff" cx="44.71" cy="62.31" r="1.26"></circle>
  </g>
</svg>
