<svg xmlns="http://www.w3.org/2000/svg" viewBox="0 0 90 90">
  <g id="Layer_2" data-name="Layer 2" stroke-width="1.5px" stroke="white">
    <path fill="#ffffff"
      d="M17.82,26.25c0-.38-.52-9.23,1.4-12.59s11.72-4.1,12.14-4.12l.06,1c-2.67.16-9.91,1.13-11.34,3.61-1.77,3.1-1.27,12-1.26,12Z">
    </path>
    <path fill="#ffffff"
      d="M16.53,31.09a1.38,1.38,0,0,1-.6-.13c-.61-.31-.78-1-1-2.07l0-.19a1.62,1.62,0,0,1,.44-1.5c2.17-2.48,12.4-5.15,16.09-4.77v1c-3.71-.37-13.53,2.37-15.34,4.44-.29.33-.24.54-.22.6l0,.2c.17.7.31,1.3.51,1.4s.48.05,1.44-.36c.27-.12.56-.27.89-.43,1.93-1,5.15-2.58,12.68-2.35v1c-7.28-.22-10.27,1.25-12.23,2.24-.34.17-.65.33-.95.45A4.38,4.38,0,0,1,16.53,31.09Z">
    </path>
    <path fill="#ffffff"
      d="M31.23,50.7a7,7,0,0,1-5-2c-.46-.5-1-1.05-1.64-1.63C22.07,44.7,19,41.73,19,37.59V29.81h1v7.78c0,3.71,2.93,6.52,5.28,8.77.62.59,1.2,1.15,1.69,1.68a6.3,6.3,0,0,0,4.42,1.66l.05,1Z">
    </path>
    <path fill="#ffffff"
      d="M31.1,50.7h-.18l0-1s2.83.1,4.43-1.66c.48-.53,1.07-1.09,1.69-1.68,2.35-2.25,5.28-5.06,5.28-8.77V29.81h1v7.78c0,4.14-3.1,7.11-5.59,9.49-.61.58-1.18,1.13-1.64,1.63A7,7,0,0,1,31.1,50.7Z">
    </path>
    <path fill="#ffffff"
      d="M18.87,36.19a3,3,0,0,1-2.11-.83c-1.15-1.12-.58-4.64-.45-5.34l1,.18c-.28,1.51-.41,3.89.16,4.44a2,2,0,0,0,1.88.5l.26,1A3,3,0,0,1,18.87,36.19Z">
    </path>
    <circle fill="#ffffff" cx="25.99" cy="34.09" r="1"></circle>
    <circle fill="#ffffff" cx="36.83" cy="34.09" r="1"></circle>
    <rect fill="#ffffff" x="23.72" y="50.64" width="4.41" height="1" transform="translate(-31.37 48.93) rotate(-60.91)">
    </rect>
    <rect fill="#ffffff" x="36.4" y="48.93" width="1" height="4.41" transform="translate(-20.19 24.35) rotate(-29.05)">
    </rect>
    <path fill="#ffffff"
      d="M10.56,80.68h-1V59.14c0-3.14,4.08-4.92,5.33-5.39a25.83,25.83,0,0,1,10-1.18l.35,0,.09.34a7,7,0,0,0,2,2.77,4.93,4.93,0,0,0,4,1.47l.17,1a5.9,5.9,0,0,1-4.82-1.73,9,9,0,0,1-2.16-2.89,25,25,0,0,0-9.25,1.14c-2.26.85-4.68,2.47-4.68,4.46Z">
    </path>
    <path fill="#ffffff"
      d="M56.58,64.4c-.06-.08-6.43-8-9.15-9.77-3.23-2.15-8-1.37-9.13-1.13a8.82,8.82,0,0,1-2.17,2.93,5.93,5.93,0,0,1-4.83,1.73l.17-1a4.94,4.94,0,0,0,4-1.47,7,7,0,0,0,2-2.77l.08-.28.28-.08c.25-.06,6.14-1.48,10.19,1.22,2.84,1.9,9.11,9.65,9.37,10Z">
    </path>
    <path fill="#ffffff"
      d="M44.94,26.25l-1-.06c0-.09.5-8.94-1.27-12C41.25,11.67,34,10.7,31.33,10.54l.06-1c.42,0,10.17.65,12.15,4.12S45,25.87,44.94,26.25Z">
    </path>
    <rect fill="#ffffff" x="17.82" y="70" width="1" height="10.69"></rect>
    <rect fill="#ffffff" x="48.44" y="70" width="1" height="10.69"></rect>
    <path fill="#ffffff"
      d="M53.77,77.39c-2.27,0-4.91-3-5.21-3.33l.76-.66c.75.87,3,3.1,4.56,3s4.7-3.45,6.47-5.54l.76.64c-.49.59-4.9,5.74-7.16,5.9Z">
    </path>
    <rect fill="#ffffff" x="68.67" y="19.02" width="1" height="32.57"></rect>
    <polygon fill="#ffffff"
      points="69.52 33.44 68.81 32.73 74.99 26.55 68.81 20.37 69.52 19.67 76.41 26.55 69.52 33.44"></polygon>
    <rect fill="#ffffff" x="28.49" y="42.03" width="5.84" height="1"></rect>
    <path fill="#ffffff"
      d="M46.25,31.13a4.48,4.48,0,0,1-1.68-.48c-.29-.12-.6-.28-.94-.45-2-1-5-2.5-12.24-2.28v-1c7.54-.23,10.76,1.41,12.69,2.38.33.17.62.32.89.44,1,.41,1.31.42,1.44.36s.34-.7.5-1.4l.05-.2c0-.06.07-.27-.22-.6C44.93,25.83,35.12,23,31.39,23.42v-1c3.71-.38,13.93,2.33,16.1,4.81a1.62,1.62,0,0,1,.44,1.5l0,.19c-.25,1.06-.42,1.76-1,2.06A1.21,1.21,0,0,1,46.25,31.13Z">
    </path>
    <path fill="#ffffff"
      d="M43.92,36.23a3.71,3.71,0,0,1-.73-.08l.26-1a2.06,2.06,0,0,0,1.88-.5c.57-.56.44-2.93.16-4.44l1-.18c.12.7.7,4.21-.45,5.34A3,3,0,0,1,43.92,36.23Z">
    </path>
    <path fill="#ffffff"
      d="M62.45,70.35l-.7-.71L77,54.39a3.51,3.51,0,1,0-5-5L56.78,64.68l-.7-.7L71.33,48.72a4.51,4.51,0,0,1,6.38,6.38Z">
    </path>
    <rect fill="#ffffff" x="70.58" y="51.22" width="1" height="8.02" transform="translate(-18.23 66.44) rotate(-45)">
    </rect>
  </g>
</svg>
