<svg xmlns="http://www.w3.org/2000/svg" viewBox="0 0 90 90">
  <defs></defs>
  <g id="Layer_2" data-name="Layer 2" stroke-width="1.5px" stroke="white">
    <path fill="#ffffff"
      d="M36.17,70.38a5.4,5.4,0,0,1-4.1-1.78A4.78,4.78,0,0,0,28.35,67a4.87,4.87,0,0,0-4.14,1.78,5.78,5.78,0,0,1-1,.88,7.25,7.25,0,0,1-3.63.77v-1a6.5,6.5,0,0,0,3.1-.6,4.53,4.53,0,0,0,.81-.74A5.85,5.85,0,0,1,28.35,66a5.69,5.69,0,0,1,4.37,1.9,4.39,4.39,0,0,0,3.59,1.51v1Z">
    </path>
    <path fill="#ffffff"
      d="M19.47,70.38a5.38,5.38,0,0,1-4.1-1.78A4.78,4.78,0,0,0,11.65,67a4.87,4.87,0,0,0-4.14,1.78,6.19,6.19,0,0,1-1,.88,7,7,0,0,1-3.63.69v-1A6.2,6.2,0,0,0,6,68.8a4.9,4.9,0,0,0,.81-.74A5.83,5.83,0,0,1,11.65,66,5.71,5.71,0,0,1,16,67.89,4.37,4.37,0,0,0,19.6,69.4v1Z">
    </path>
    <path fill="#ffffff"
      d="M52.87,70.38a5.42,5.42,0,0,1-4.1-1.78A4.78,4.78,0,0,0,45.05,67a4.87,4.87,0,0,0-4.14,1.78,5.42,5.42,0,0,1-1,.88,7.22,7.22,0,0,1-3.62.77v-1a6.51,6.51,0,0,0,3.1-.6,4.87,4.87,0,0,0,.8-.74A5.85,5.85,0,0,1,45.05,66a5.73,5.73,0,0,1,4.38,1.9A4.4,4.4,0,0,0,53,69.4v1Z">
    </path>
    <path fill="#ffffff"
      d="M69.6,70.38a5.42,5.42,0,0,1-4.11-1.78A4.76,4.76,0,0,0,61.77,67a4.9,4.9,0,0,0-4.14,1.78,5.42,5.42,0,0,1-1,.88,7.22,7.22,0,0,1-3.62.77v-1a6.51,6.51,0,0,0,3.1-.6,5.33,5.33,0,0,0,.81-.74A5.83,5.83,0,0,1,61.77,66a5.72,5.72,0,0,1,4.38,1.9,4.41,4.41,0,0,0,3.6,1.51v1Z">
    </path>
    <path fill="#ffffff"
      d="M86.39,70.42a5.43,5.43,0,0,1-4.1-1.82A4.78,4.78,0,0,0,78.57,67a4.9,4.9,0,0,0-4.14,1.78,5.42,5.42,0,0,1-1,.88,7.46,7.46,0,0,1-3.7.77v-1a6.79,6.79,0,0,0,3.18-.6,4.87,4.87,0,0,0,.8-.74A5.85,5.85,0,0,1,78.57,66,5.73,5.73,0,0,1,83,67.89a4.37,4.37,0,0,0,3.58,1.56l0,1Z">
    </path>
    <path fill="#ffffff" d="M6.32,64.16c-2.69-3.22-4-8.44-4-8.66l-.14-.59H49.32v1H3.4a22.9,22.9,0,0,0,3.66,7.67Z">
    </path>
    <path fill="#ffffff"
      d="M82.87,64.15l-.75-.6a14.18,14.18,0,0,0,3.23-7.68H65.75v-1H86.3l0,.46C86.33,55.54,86.47,59.65,82.87,64.15Z">
    </path>
    <path fill="#ffffff"
      d="M25.08,62.3A35.68,35.68,0,0,1,19.2,62c-3.74-1-6.15-6.21-6.25-6.43l.87-.4c0,.05,2.33,5,5.63,5.9,1.7.46,12.74.17,17.43,0v-5.7h1V62l-.46,0C37,62.06,30.28,62.3,25.08,62.3Z">
    </path>
    <rect fill="#ffffff" x="23.19" y="55.39" width="0.96" height="6.41"></rect>
    <rect fill="#ffffff" x="30.21" y="55.39" width="0.96" height="6.38"></rect>
    <path fill="#ffffff"
      d="M28.89,40.44l-8.37-8.37L29,23.59,37.37,32l-.43,8Zm-7.17-8.37,7.51,7.5,6.9-.37.37-6.9L29,24.8Z"></path>
    <path fill="#ffffff"
      d="M58.81,39.13H50.22V36.44A5.23,5.23,0,0,1,47.78,35h0l-.32-.4a12,12,0,0,1-2.24-3.56,2.47,2.47,0,0,1,.56-1.72,2.81,2.81,0,0,0,.53-1.27,8.29,8.29,0,0,1,6.55-8.46c2-.4,5-.2,8.16,3.07a6.15,6.15,0,0,1,1.87,4.67c-.16,3.61-3.34,6.75-4.08,7.43Zm-7.74-.85H58v-3.9l.15-.12s3.77-3.33,3.93-7a5.35,5.35,0,0,0-1.63-4c-2.87-3-5.6-3.19-7.37-2.82A7.3,7.3,0,0,0,48,24.34l0,.1a7.49,7.49,0,0,0-.75,3.6,3.24,3.24,0,0,1-.66,1.73c-.24.41-.5.84-.44,1.09a11.54,11.54,0,0,0,2.07,3.22c.15.18.27.33.33.42h0a5.07,5.07,0,0,0,2.29,1.21l.32.09Z">
    </path>
    <path fill="#ffffff"
      d="M50.73,36.54l-.23-.82s3.8-1.34,4.85-3.79c.42-.95.25-4.51-.52-5.41-.45-.51-4.39-.34-7.79.15l-.12-.85c1.76-.25,7.58-1,8.55.15s1.19,5.08.67,6.3a7,7,0,0,1-2.57,2.84l4.73-1,.17.84Z">
    </path>
    <path fill="#ffffff"
      d="M58.27,59.15l-3-3.82L60,51.23a17.09,17.09,0,0,1-3.39-3.43,7.85,7.85,0,0,1-1.16-5.72,5.71,5.71,0,0,1,2.67-3.74h0c1-.61,3.7-1,4.63.08.78.87,6.14,9.62,6.71,11.78S61.3,57.48,58.59,59Zm-1.79-3.7,2,2.61c5.18-2.89,10.47-6.57,10.18-7.65-.55-2.06-5.87-10.69-6.53-11.42s-2.77-.39-3.54.08h0a4.83,4.83,0,0,0-2.29,3.18,7.12,7.12,0,0,0,1,5.07A17.13,17.13,0,0,0,61,50.85l.45.32Z">
    </path>
    <polygon fill="#ffffff"
      points="48.66 52.91 40.95 45.93 42.71 42.5 48.57 42.5 48.57 43.46 43.3 43.46 42.14 45.71 49.31 52.19 48.66 52.91">
    </polygon>
    <path fill="#ffffff"
      d="M41.54,46.3a24.68,24.68,0,0,1-4.27-.46c-1.94-.36-2.34-2-2.34-4.35A2,2,0,0,1,35.56,40c.94-.85,2.7-.66,4.11-.52.42,0,.82.09,1.13.1,2,0,2.65,3.22,2.68,3.36l-.95.18c-.13-.67-.72-2.57-1.74-2.58-.34,0-.76-.05-1.23-.1-1.15-.12-2.73-.29-3.36.27a1.05,1.05,0,0,0-.31.83c0,2.63.53,3.21,1.56,3.41a25.4,25.4,0,0,0,4.09.44Z">
    </path>
    <path fill="#ffffff"
      d="M55,61.54a1.88,1.88,0,0,1-1.36-.42c-.61-.61-3.6-3.74-3.18-5.31H48.94l0-.37A83,83,0,0,1,48.14,43c.15-2.23.65-3.69,1.5-4.34a1.4,1.4,0,0,1,1.09-.32l-.17.83h0a.7.7,0,0,0-.44.2c-.35.29-1,1.15-1.13,3.69a79.63,79.63,0,0,0,.7,12h1.83A15.51,15.51,0,0,1,56,55l-.07.84H51.6c-.26.06-.29.17-.31.21-.22.71,1.37,2.89,3,4.5.38.38,2.19.15,3.26-.56a2.74,2.74,0,0,0,.45-1.4l.85.09c0,.38-.22,1.63-.83,2A6.11,6.11,0,0,1,55,61.54Z">
    </path>
  </g>
</svg>
