<svg viewBox="0 0 70 70" fill="none" xmlns="http://www.w3.org/2000/svg">
<rect x="1" y="1" width="68" height="68" rx="9" fill="#EBB112" stroke="#0D213D" stroke-width="2"/>
<path d="M12 40.5C12 6.5 58 6.50001 58 40.5" stroke="#0D213D" stroke-width="3"/>
<path d="M21.7056 39.5989L22.1261 41.4135H46.0344L50.2118 35.1958C50.5457 34.6719 50.128 33.9624 49.5078 34.0664L22.2621 38.6343C21.8233 38.708 21.5637 39.1727 21.7056 39.5989Z" fill="#0D213D"/>
<path d="M22.2621 42H21.7056L21.0774 39.8326C20.7943 38.9824 21.3177 38.0801 22.1577 37.9392L49.4035 33.3712C50.5764 33.1745 51.4357 34.5353 50.7642 35.589L46.6337 42H45.6404M22.2621 42H45.6404M22.2621 42L22.1261 41.4135M45.6404 42L46.0344 41.4135M12.0056 41.4135H12.6776M59.1211 41.4135H58.4491M21.3082 41.4135H22.1261M46.9098 41.4135H46.0344M22.1261 41.4135L21.7056 39.5989C21.5637 39.1727 21.8233 38.708 22.2621 38.6343L49.5078 34.0664C50.128 33.9624 50.5457 34.6719 50.2118 35.1958L46.0344 41.4135M22.1261 41.4135H46.0344M22.1261 41.4135H6.41844C6.18734 41.4135 6 41.5763 6 41.777C6 41.9778 6.18734 42.1405 6.41844 42.1405H64.5815C64.8126 42.1405 65 41.9778 65 41.777C65 41.5763 64.8126 41.4135 64.5815 41.4135H46.0344M30.7794 31C30.2554 31 29.9225 31.5623 30.1365 32.0423L30.3751 32.6498C30.4976 32.9247 30.9239 33.0186 31.2191 32.9974L35.3318 32.6498L39.7642 32.3421C40.0701 32.3421 40.336 32.1142 40.0701 31.6501L39.9035 31.3594C39.7767 31.1379 39.5459 31 39.2945 31H30.7794ZM16.471 47.9568H55.1994C55.4282 47.9568 55.6136 48.1195 55.6136 48.3203C55.6136 48.5211 55.4282 48.6838 55.1994 48.6838H16.471C16.2423 48.6838 16.0568 48.5211 16.0568 48.3203C16.0568 48.1195 16.2423 47.9568 16.471 47.9568ZM24.514 53.773H47.1565C47.3839 53.773 47.5682 53.9358 47.5682 54.1365C47.5682 54.3373 47.3839 54.5 47.1565 54.5H24.514C24.2866 54.5 24.1023 54.3373 24.1023 54.1365C24.1023 53.9358 24.2866 53.773 24.514 53.773Z" stroke="#0D213D" stroke-width="2"/>
</svg>
