<svg xmlns="http://www.w3.org/2000/svg" viewBox="0 0 90 90">
  <g id="Layer_2" data-name="Layer 2" stroke-width="1.5px" stroke="white">
    <path fill="#ffffff"
      d="M77.54,23.09H12.46V14.78A2.78,2.78,0,0,1,15.24,12H74.76a2.78,2.78,0,0,1,2.78,2.78ZM13.54,22H76.46V14.78a1.7,1.7,0,0,0-1.7-1.69H15.24a1.7,1.7,0,0,0-1.7,1.69Z">
    </path>
    <path fill="#ffffff"
      d="M61.49,12.64h-33V9.15A2.5,2.5,0,0,1,31,6.66H59a2.5,2.5,0,0,1,2.49,2.49Zm-32-1h31V9.15A1.51,1.51,0,0,0,59,7.64H31a1.51,1.51,0,0,0-1.51,1.51Z">
    </path>
    <path fill="#ffffff"
      d="M22.82,31.05H11.74a1.24,1.24,0,0,1-1.24-1.24V23.28a1.23,1.23,0,0,1,1.24-1.23H22.82Zm-11.08-8a.23.23,0,0,0-.24.23v6.53a.24.24,0,0,0,.24.24H21.82v-7Z">
    </path>
    <path fill="#ffffff" d="M34.13,31.05H21.82v-9H34.13Zm-11.31-1H33.13v-7H22.82Z"></path>
    <path fill="#ffffff" d="M45.45,31.05H33.13v-9H45.45Zm-11.32-1H44.45v-7H34.13Z"></path>
    <path fill="#ffffff" d="M56.87,31.05H44.55v-9H56.87Zm-11.32-1H55.87v-7H45.55Z"></path>
    <path fill="#ffffff" d="M68.18,31.05H55.87v-9H68.18Zm-11.31-1H67.18v-7H56.87Z"></path>
    <path fill="#ffffff"
      d="M78.27,31.05H67.18v-9H78.27a1.23,1.23,0,0,1,1.23,1.23v6.53A1.24,1.24,0,0,1,78.27,31.05Zm-10.09-1H78.27a.24.24,0,0,0,.23-.24V23.28a.23.23,0,0,0-.23-.23H68.18Z">
    </path>
    <path fill="#ffffff"
      d="M15.59,60.56l-.6-.8c.08-.06,8-6,13.93-9.54a66.8,66.8,0,0,1,15.92-6.8l.25,1a65.58,65.58,0,0,0-15.65,6.68C23.55,54.62,15.67,60.5,15.59,60.56Z">
    </path>
    <path fill="#ffffff"
      d="M33,76.61a6.4,6.4,0,0,1-.88-.06c-4.4-.56-14.55-11.35-18-17.3C13,57.3,12.66,56,13,55.12c1.58-3.68,29.31-16.65,32-16.65h.5V55h-1V39.53c-4.8,1-29.32,13.15-30.53,16-.08.19-.23,1,1.07,3.24,3.48,6.09,13.49,16.34,17.22,16.81,4.42.56,11-4.18,12.24-5.08V60.16h1V71l-.2.15C45,71.36,38.19,76.61,33,76.61Z">
    </path>
    <polygon fill="#ffffff" points="25.05 48.09 24.07 47.91 26.7 33.89 44.97 33.89 44.97 34.89 27.54 34.89 25.05 48.09">
    </polygon>
    <rect fill="#ffffff" x="8.52" y="40.79" width="21.83" height="1"
      transform="matrix(0.18, -0.98, 0.98, 0.18, -24.64, 53.12)"></rect>
    <polygon fill="#ffffff"
      points="44.97 82.89 7.42 82.89 7.42 75.83 21.09 67.32 21.62 68.17 8.42 76.39 8.42 81.89 44.97 81.89 44.97 82.89">
    </polygon>
    <path fill="#ffffff"
      d="M74.41,60.56c-.08-.06-8-5.94-13.85-9.49a65.58,65.58,0,0,0-15.65-6.68l.25-1a66.8,66.8,0,0,1,15.92,6.8C67,53.79,74.93,59.7,75,59.76Z">
    </path>
    <path fill="#ffffff"
      d="M57,76.61c-5.21,0-12-5.25-12.29-5.48l-.2-.15V60.16h1V70.48c1.21.9,7.8,5.64,12.24,5.08C61.49,75.09,71.51,64.84,75,58.75c1.3-2.28,1.15-3,1.07-3.24-1.21-2.83-25.73-15-30.53-16V55h-1V38.47H45c2.64,0,30.37,13,32,16.65.36.83,0,2.18-1.13,4.13C72.45,65.2,62.3,76,57.9,76.55A6.4,6.4,0,0,1,57,76.61Z">
    </path>
    <polygon fill="#ffffff" points="64.95 48.09 62.47 34.89 45.03 34.89 45.03 33.89 63.3 33.89 65.93 47.91 64.95 48.09">
    </polygon>
    <rect fill="#ffffff" x="70.07" y="30.38" width="1" height="21.83" transform="translate(-6.18 13.1) rotate(-10.16)">
    </rect>
    <polygon fill="#ffffff"
      points="82.58 82.89 45.03 82.89 45.03 81.89 81.58 81.89 81.58 76.39 68.38 68.17 68.91 67.32 82.58 75.83 82.58 82.89">
    </polygon>
  </g>
</svg>
