<svg xmlns="http://www.w3.org/2000/svg" viewBox="0 0 90 90">
  <g id="Layer_2" data-name="Layer 2" stroke-width="1.5px" stroke="white">
    <path fill="#ffffff"
      d="M71.33,55.23l-.51-.86A107.68,107.68,0,0,0,86.88,41.5a3.83,3.83,0,0,0,.82-1.24,12.88,12.88,0,0,0,.54-5.79H31.54l-.09-.39s-.65-2.77-2.54-2.58C25.67,31.83,11.44,34,10.26,35a18,18,0,0,1-1.93,1.27c-1.89,1.15-4.75,2.89-4.75,4.35S10.27,50,14.48,54.44l-.71.69c-1.87-2-11.17-12-11.17-14.52,0-2,2.9-3.79,5.23-5.2a18,18,0,0,0,1.8-1.19c1.68-1.42,18.08-3.6,19.18-3.71,2-.21,3.1,1.67,3.5,3H89.09l.06.42c0,.17.63,4.06-.55,6.78a4.65,4.65,0,0,1-1,1.56A109.5,109.5,0,0,1,71.33,55.23Z">
    </path>
    <rect fill="#ffffff" x="16.09" y="39.87" width="72.06" height="1"></rect>
    <rect fill="#ffffff" x="3.09" y="39.87" width="9.22" height="1"></rect>
    <path fill="#ffffff"
      d="M44.53,55.3h-.79c-4.51-.13-6-1-7.52-1.95s-2.66-1.62-6.65-1.62a18.54,18.54,0,0,0-8.63,1.92,15,15,0,0,1-6.82,1.65C7.68,55.29.31,50.84,0,50.65l.51-.85c.07,0,7.44,4.49,13.61,4.49a14.1,14.1,0,0,0,6.43-1.57,19.49,19.49,0,0,1,9-2c4.26,0,5.73.9,7.16,1.76s2.78,1.69,7,1.81c4.47.13,6.21-.85,7.88-1.79a11.85,11.85,0,0,1,6.76-1.78A14.58,14.58,0,0,1,66,52.63a12.15,12.15,0,0,0,6.37,1.67h0c3.43,0,6.36-1.37,8.94-2.57,2.35-1.09,4.55-2.13,6.81-2l-.05,1c-2-.09-4,.83-6.35,1.92-2.67,1.24-5.71,2.65-9.35,2.66a13.33,13.33,0,0,1-6.83-1.77,13.73,13.73,0,0,0-7.19-1.81,10.84,10.84,0,0,0-6.28,1.66A13.21,13.21,0,0,1,44.53,55.3Z">
    </path>
    <path fill="#ffffff"
      d="M44.53,61.87h-.79c-4.51-.13-6-1-7.52-2s-2.66-1.62-6.65-1.62A15.26,15.26,0,0,0,21.5,60.2a15.07,15.07,0,0,1-3,1.25c-.2,0-.36.1-.5.15a5,5,0,0,1-1.89.26v-1a4.06,4.06,0,0,0,1.59-.21l.55-.17a14.22,14.22,0,0,0,2.84-1.18,16.27,16.27,0,0,1,8.5-2c4.26,0,5.73.9,7.16,1.76s2.78,1.69,7,1.81C48.25,61,50,60,51.65,59.07a11.85,11.85,0,0,1,6.76-1.78,11.93,11.93,0,0,1,7.15,1.93,9.78,9.78,0,0,0,5.87,1.65h0c2.81,0,3-.07,4.49-.71.43-.18,1-.4,1.64-.67l.35.93-1.61.66c-1.68.71-2,.78-4.87.79h0a10.74,10.74,0,0,1-6.37-1.79,11,11,0,0,0-6.65-1.79A10.84,10.84,0,0,0,52.13,60,13.21,13.21,0,0,1,44.53,61.87Z">
    </path>
    <path fill="#ffffff"
      d="M59.05,34.37,50.9,27.92a3.4,3.4,0,0,0-2.12-.74H36.66a.52.52,0,0,0-.42.21c-.78.85-.87,3.83-.74,5.5l-1,.07c0-.48-.32-4.8,1-6.25a1.5,1.5,0,0,1,1.14-.53H48.78a4.41,4.41,0,0,1,2.72.95l8.16,6.45Z">
    </path>
    <rect fill="#ffffff" x="40.56" y="26.68" width="0.98" height="7.29"></rect>
    <polygon fill="#ffffff" points="79.59 59.73 79.16 58.83 82.72 57.04 83.16 57.94 79.59 59.73"></polygon>
    <path fill="#ffffff" d="M13.15,61.83c-1.61-.68-4-1.78-4-1.79l.41-.91s2.37,1.1,4,1.78Z"></path>
  </g>
</svg>
