<svg xmlns="http://www.w3.org/2000/svg" viewBox="0 0 90 90">
  <g id="Layer_2" data-name="Layer 2" stroke-width="2px">
    <path stroke="#fff" fill="none" stroke-miterlimit="10"
      d="M14.14,14.33l-1.36,1.36a1,1,0,0,0-.2,1.14l3.67,7.75a1,1,0,0,0,.73.56l4.31.78a1,1,0,0,1,.53.28L37.67,42.05">
    </path>
    <line stroke="#fff" fill="none" stroke-miterlimit="10" x1="46.14" y1="50.36" x2="49.4" y2="53.62"></line>
    <rect fill="#fff" x="44.66" y="51.27" width="15.16" height="2.31" rx="1.15"
      transform="translate(-21.77 52.29) rotate(-45)"></rect>
    <path stroke="#fff" fill="none" stroke-miterlimit="10"
      d=" M49.71,56.58,63.87,74.52A4,4,0,0,0,66.34,76l5.52.94a2,2,0,0,0,1.75-.56l1.28-1.28"></path>
    <path stroke="#fff" fill="none" stroke-miterlimit="10"
      d="M14.14,14.33,15.51,13a1,1,0,0,1,1.13-.19l7.76,3.67a1,1,0,0,1,.55.72l.79,4.32A.94.94,0,0,0,26,22L41.87,37.86">
    </path>
    <line stroke="#fff" fill="none" stroke-miterlimit="10" x1="50.17" y1="46.33" x2="53.44" y2="49.59"></line>
    <path stroke="#fff" fill="none" stroke-miterlimit="10"
      d="M56.39,49.9,74.33,64.05a4,4,0,0,1,1.47,2.47L76.74,72a2,2,0,0,1-.56,1.75l-1.29,1.29"></path>
    <rect fill="#fff" x="62.21" y="54.14" width="3" height="18.51" rx="1"
      transform="translate(-26.81 63.26) rotate(-45)"></rect>
    <path stroke="#fff" fill="none" stroke-miterlimit="10"
      d="M75.44,20.21,70.68,25a4.61,4.61,0,0,1-6.52,0h0a4.61,4.61,0,0,1,0-6.52L69,13.57a11.85,11.85,0,0,0-16.11,14L40.14,40.32l-12.8,12.8A11.85,11.85,0,0,0,13.22,68.83L18,64.07a4.61,4.61,0,1,1,6.52,6.51l-4.88,4.88A11.84,11.84,0,0,0,35.73,61.51l12.8-12.8L61.32,35.92A11.85,11.85,0,0,0,75.44,20.21Z">
    </path>
    <rect fill="#fff" x="43.43" y="35.36" width="3" height="18.51" rx="1"
      transform="translate(44.06 -18.35) rotate(45)"></rect>
    <rect fill="#fff" x="31.49" y="55.54" width="3" height="3" rx="1" transform="translate(49 -6.42) rotate(45)">
    </rect>
    <rect fill="#fff" x="55.36" y="31.68" width="3" height="3" rx="1" transform="translate(39.11 -30.28) rotate(45)">
    </rect>
  </g>
</svg>
