<svg viewBox="0 0 70 70" fill="none" xmlns="http://www.w3.org/2000/svg">
<rect width="70" height="70" rx="10" fill="#0D213D"/>
<path d="M12.5 41C12.5 7 58.5 7.00001 58.5 41" stroke="#FEDD14" stroke-width="3"/>
<path d="M64.5815 41.9135H6.41844C6.18734 41.9135 6 42.0762 6 42.277C6 42.4778 6.18734 42.6405 6.41844 42.6405H64.5815C64.8126 42.6405 65 42.4778 65 42.277C65 42.0762 64.8126 41.9135 64.5815 41.9135Z" fill="#3798E2"/>
<path d="M55.1994 48.4568H16.471C16.2423 48.4568 16.0568 48.6195 16.0568 48.8203C16.0568 49.021 16.2423 49.1838 16.471 49.1838H55.1994C55.4282 49.1838 55.6136 49.021 55.6136 48.8203C55.6136 48.6195 55.4282 48.4568 55.1994 48.4568Z" fill="#3798E2"/>
<path d="M47.1565 54.273H24.514C24.2866 54.273 24.1023 54.4357 24.1023 54.6365C24.1023 54.8373 24.2866 55 24.514 55H47.1565C47.3839 55 47.5682 54.8373 47.5682 54.6365C47.5682 54.4357 47.3839 54.273 47.1565 54.273Z" fill="#3798E2"/>
<path d="M21.3082 41.9135H22.0189L21.4043 40.0199C21.2614 39.5796 21.5228 39.0997 21.9645 39.0236L49.3934 34.3053C50.0178 34.1979 50.4383 34.9307 50.1021 35.4719L46.1015 41.9135H46.9098L50.6582 35.878C51.3342 34.7897 50.4692 33.3841 49.2884 33.5872L21.8594 38.3055C21.0137 38.4511 20.4869 39.383 20.7718 40.2612L21.3082 41.9135Z" fill="#3798E2"/>
<path d="M22.0189 41.9135H46.1015L50.1021 35.4719C50.4383 34.9307 50.0178 34.1979 49.3934 34.3053L21.9645 39.0236C21.5228 39.0997 21.2614 39.5796 21.4043 40.0199L22.0189 41.9135Z" fill="#3798E2"/>
<path d="M30.5391 31.138C30.0115 31.138 29.6765 31.7188 29.8918 32.2146L30.132 32.8421C30.2554 33.126 30.6845 33.223 30.9817 33.2012L35.1221 32.8421L39.5843 32.5243C39.8922 32.5243 40.1599 32.2889 39.8922 31.8095L39.7245 31.5092C39.5969 31.2805 39.3646 31.138 39.1114 31.138H30.5391Z" fill="#3798E2"/>
<path d="M12.0056 41.9135H12.6776M59.1211 41.9135H58.4491M22.0189 41.9135H21.3082L20.7718 40.2612C20.4869 39.383 21.0137 38.4511 21.8594 38.3055L49.2884 33.5872C50.4692 33.3841 51.3342 34.7897 50.6582 35.878L46.9098 41.9135H46.1015M22.0189 41.9135L21.4043 40.0199C21.2614 39.5796 21.5228 39.0997 21.9645 39.0236L49.3934 34.3053M22.0189 41.9135H46.1015M49.3934 34.3053C50.0178 34.1979 50.4383 34.9307 50.1021 35.4719L46.1015 41.9135M49.3934 34.3053L49.3409 33.9464M6.41844 41.9135H64.5815C64.8126 41.9135 65 42.0762 65 42.277C65 42.4778 64.8126 42.6405 64.5815 42.6405H6.41844C6.18734 42.6405 6 42.4778 6 42.277C6 42.0762 6.18734 41.9135 6.41844 41.9135ZM16.471 48.4568H55.1994C55.4282 48.4568 55.6136 48.6195 55.6136 48.8203C55.6136 49.021 55.4282 49.1838 55.1994 49.1838H16.471C16.2423 49.1838 16.0568 49.021 16.0568 48.8203C16.0568 48.6195 16.2423 48.4568 16.471 48.4568ZM24.514 54.273H47.1565C47.3839 54.273 47.5682 54.4357 47.5682 54.6365C47.5682 54.8373 47.3839 55 47.1565 55H24.514C24.2866 55 24.1023 54.8373 24.1023 54.6365C24.1023 54.4357 24.2866 54.273 24.514 54.273ZM30.5391 31.138C30.0115 31.138 29.6765 31.7188 29.8918 32.2146L30.132 32.8421C30.2554 33.126 30.6845 33.223 30.9817 33.2012L35.1221 32.8421L39.5843 32.5243C39.8922 32.5243 40.1599 32.2889 39.8922 31.8095L39.7245 31.5092C39.5969 31.2805 39.3646 31.138 39.1114 31.138H30.5391Z" stroke="#3798E2" stroke-width="2"/>
</svg>
